<?xml version="1.0" encoding="utf-8"?>
<!-- Generator: Adobe Illustrator 28.1.0, SVG Export Plug-In . SVG Version: 6.00 Build 0)  -->
<svg version="1.1" id="Layer_1" xmlns="http://www.w3.org/2000/svg" xmlns:xlink="http://www.w3.org/1999/xlink" x="0px" y="0px"
	 viewBox="0 0 280.53 237.06" style="enable-background:new 0 0 280.53 237.06;" xml:space="preserve">
<style type="text/css">
	.st0{fill:#EFBFE2;}
	.st1{fill:#F7BE8B;}
	.st2{fill:#CE4D4D;}
	.st3{fill:#FFFAFF;}
	.st4{fill:#A5A5A5;}
	.st5{fill:#FFFAFF;stroke:#000000;stroke-width:2.5;stroke-miterlimit:10;}
	.st6{fill:#77D895;}
	.st7{fill:#272727;}
	.st8{fill:#BFE090;}
	.st9{fill:#FFFFFF;}
	.st10{fill:#CDE3EE;}
	.st11{fill:#FF8888;}
	.st12{fill:#EFAFBB;}
	.st13{fill:#E88858;}
	.st14{fill:#C5C2F9;}
	.st15{fill:#75B8EF;}
</style>
<g>
	<g>
		<g>
			<g id="XMLID_00000163775425302600211720000007652713735564529035_">
				<path class="st1" d="M70.52,34.36c-31.05,16.13-54.14,46.8-61.07,81.09c-2.86,14.17-3.04,29.13,1.48,42.86
					c5.13,15.55,16.01,28.69,28.69,39.04c33.07,26.97,77.91,35.92,120.52,33.57c33.87-1.87,69.24-11.42,92.44-36.16
					c23.2-24.74,29.02-67.55,5.59-92.07c-9.34-9.77-22.02-15.69-32-24.81c-24.05-21.96-33.15-62.31-64.64-70.63
					c-9.65-2.55-19.88-1.39-29.7,0.41C105.24,12.52,84.14,27.28,70.52,34.36"/>
			</g>
			<g id="XMLID_00000132800068751269946000000011883967428866768025_">
				<path class="st1" d="M250.48,64.21c5.69-2.12,10.32-6.91,12.24-12.66c0.79-2.38,1.14-4.95,0.66-7.41
					c-0.55-2.79-2.15-5.28-4.11-7.33c-5.12-5.35-12.65-7.85-20.04-8.35c-5.87-0.4-12.17,0.49-16.69,4.26
					c-4.52,3.77-6.44,11.02-2.92,15.74c1.4,1.88,3.46,3.17,4.98,4.95c3.67,4.29,4.38,11.44,9.63,13.54
					c1.61,0.64,3.39,0.66,5.12,0.56C244.04,67.23,247.99,65.14,250.48,64.21"/>
			</g>
		</g>
	</g>
	<g>
		<g>
			<g>
				<g>
					<path class="st3" d="M186.48,124.41c-8.89,0-16.85-4.6-21.31-12.32c-3.29-5.7-4.17-12.33-2.46-18.69
						c1.7-6.35,5.78-11.66,11.48-14.95c3.74-2.16,7.98-3.29,12.28-3.29c8.8,0,17,4.72,21.38,12.31c3.29,5.7,4.17,12.33,2.46,18.69
						c-1.7,6.35-5.78,11.66-11.48,14.95c-0.48,0.27-1.02,0.42-1.57,0.42c-1.12,0-2.16-0.6-2.72-1.57c-0.86-1.5-0.35-3.42,1.15-4.28
						c4.25-2.45,7.29-6.41,8.56-11.15c1.27-4.74,0.62-9.68-1.84-13.93c-3.27-5.66-9.38-9.18-15.95-9.18c-3.21,0-6.37,0.85-9.16,2.46
						c-4.25,2.45-7.29,6.41-8.56,11.15c-1.27,4.73-0.62,9.68,1.84,13.93c3.32,5.75,9.26,9.19,15.89,9.19c0.45,0,0.9-0.02,1.35-0.05
						c0.83-0.06,1.67-0.18,2.49-0.35c0.21-0.04,0.43-0.07,0.65-0.07c1.47,0,2.76,1.04,3.06,2.48c0.36,1.69-0.73,3.36-2.42,3.72
						c-1.09,0.23-2.22,0.39-3.34,0.47C187.69,124.39,187.08,124.41,186.48,124.41z"/>
					<path d="M186.48,76.03c8.22,0,16.23,4.26,20.62,11.87c3.18,5.49,4.02,11.9,2.38,18.02c-1.64,6.13-5.58,11.25-11.08,14.42
						c-0.36,0.21-0.74,0.3-1.13,0.3c-0.78,0-1.54-0.41-1.96-1.13c-0.62-1.08-0.25-2.46,0.83-3.09c4.45-2.57,7.64-6.72,8.97-11.68
						c1.33-4.96,0.65-10.14-1.92-14.59c-3.56-6.16-10.05-9.61-16.71-9.61c-3.26,0-6.57,0.83-9.59,2.57
						c-4.45,2.57-7.64,6.72-8.97,11.68c-1.33,4.96-0.65,10.14,1.92,14.59c3.48,6.02,9.77,9.62,16.65,9.62
						c0.47,0,0.94-0.02,1.42-0.05c0.87-0.06,1.75-0.19,2.61-0.37c0.16-0.03,0.32-0.05,0.47-0.05c1.04,0,1.98,0.73,2.21,1.79
						c0.26,1.22-0.52,2.42-1.74,2.68c-1.06,0.22-2.14,0.38-3.22,0.45c-0.58,0.04-1.17,0.06-1.74,0.06
						c-8.49,0-16.25-4.44-20.55-11.88c-3.17-5.49-4.02-11.9-2.38-18.02c1.64-6.13,5.58-11.25,11.08-14.42
						C178.37,77.06,182.45,76.03,186.48,76.03 M186.48,74.28c-4.45,0-8.85,1.18-12.72,3.41c-5.9,3.41-10.13,8.9-11.89,15.48
						c-1.76,6.58-0.86,13.45,2.55,19.35c4.61,7.99,12.86,12.75,22.06,12.75c0.62,0,1.25-0.02,1.87-0.07
						c1.16-0.08,2.33-0.25,3.46-0.49c1.6-0.34,2.78-1.6,3.09-3.11c0.68,0.5,1.51,0.78,2.37,0.78c0.7,0,1.39-0.19,2-0.54
						c5.9-3.41,10.13-8.9,11.89-15.48c1.76-6.58,0.86-13.45-2.55-19.35C204.08,79.17,195.59,74.28,186.48,74.28L186.48,74.28z
						 M186.49,117.27c-6.31,0-11.96-3.27-15.13-8.75c-2.34-4.04-2.96-8.75-1.75-13.26c1.21-4.51,4.1-8.28,8.15-10.62
						c2.65-1.53,5.67-2.34,8.72-2.34c6.25,0,12.08,3.35,15.19,8.74c2.34,4.04,2.96,8.75,1.75,13.26c-1.21,4.51-4.1,8.28-8.15,10.62
						c-1.03,0.59-1.7,1.58-1.92,2.66c-0.67-0.49-1.49-0.78-2.37-0.78c-0.28,0-0.56,0.03-0.84,0.09c-0.77,0.16-1.57,0.28-2.37,0.33
						C187.35,117.25,186.92,117.27,186.49,117.27L186.49,117.27z"/>
				</g>
				<g>
					<path class="st3" d="M133.71,84.96c-0.25,0-0.51-0.03-0.76-0.09c-1.68-0.42-2.7-2.12-2.28-3.8l3.84-15.34
						c0.66-2.64,3.03-4.49,5.75-4.49s5.09,1.85,5.75,4.49l3.84,15.34c0.2,0.81,0.08,1.65-0.35,2.37c-0.43,0.72-1.12,1.22-1.93,1.43
						c-0.25,0.06-0.51,0.09-0.76,0.09c-1.44,0-2.69-0.98-3.04-2.37l-0.69-2.76h-5.65l-0.69,2.76
						C136.4,83.99,135.15,84.96,133.71,84.96L133.71,84.96z M141.52,73.57l-1.25-5.02l-1.26,5.02H141.52z"/>
					<path d="M140.26,62.11c2.32,0,4.34,1.57,4.91,3.83l3.84,15.34c0.3,1.21-0.43,2.44-1.64,2.74c-0.18,0.05-0.37,0.07-0.55,0.07
						c-1.01,0-1.93-0.69-2.19-1.71l-0.86-3.42h-7.01l-0.86,3.42c-0.26,1.03-1.18,1.71-2.19,1.71c-0.18,0-0.37-0.02-0.55-0.07
						c-1.21-0.3-1.95-1.53-1.64-2.74l3.84-15.34C135.92,63.68,137.94,62.11,140.26,62.11 M137.89,74.44h4.75l-1.85-7.41
						c-0.06-0.24-0.28-0.41-0.52-0.41c-0.25,0-0.46,0.17-0.52,0.41L137.89,74.44 M140.26,60.36c-3.13,0-5.84,2.12-6.6,5.15
						l-3.84,15.34c-0.54,2.14,0.77,4.33,2.92,4.86c0.32,0.08,0.65,0.12,0.97,0.12c1.84,0,3.44-1.25,3.89-3.04l0.52-2.09h4.28
						l0.52,2.09c0.45,1.79,2.05,3.04,3.89,3.04c0.33,0,0.66-0.04,0.98-0.12c1.04-0.26,1.91-0.91,2.46-1.83s0.71-2,0.45-3.04
						l-3.84-15.34C146.11,62.48,143.39,60.36,140.26,60.36L140.26,60.36z M140.13,72.69l0.13-0.54l0.13,0.54H140.13L140.13,72.69z"
						/>
				</g>
				<g>
					<path class="st3" d="M140.26,97.72c-13.59,0-24.64-11.05-24.64-24.63c0-13.58,11.06-24.63,24.64-24.63s24.64,11.05,24.64,24.63
						C164.91,86.68,153.85,97.72,140.26,97.72z M140.26,54.74c-10.13,0-18.38,8.23-18.38,18.36s8.24,18.36,18.38,18.36
						s18.38-8.24,18.38-18.36S150.4,54.74,140.26,54.74z"/>
					<path d="M140.26,49.35c13.11,0,23.77,10.65,23.77,23.75c0,13.1-10.66,23.75-23.77,23.75c-13.11,0-23.77-10.65-23.77-23.75
						C116.49,60,127.16,49.35,140.26,49.35 M140.26,92.33c10.62,0,19.25-8.63,19.25-19.23c0-10.6-8.64-19.23-19.25-19.23
						s-19.25,8.63-19.25,19.23C121.01,83.7,129.65,92.33,140.26,92.33 M140.26,47.6c-14.07,0-25.52,11.44-25.52,25.5
						c0,14.06,11.45,25.5,25.52,25.5s25.52-11.44,25.52-25.5C165.78,59.04,154.34,47.6,140.26,47.6L140.26,47.6z M140.26,90.58
						c-9.65,0-17.5-7.84-17.5-17.48c0-9.64,7.85-17.48,17.5-17.48s17.5,7.84,17.5,17.48C157.77,82.74,149.91,90.58,140.26,90.58
						L140.26,90.58z"/>
				</g>
				<g>
					<path class="st3" d="M177.19,110.94c-1.73,0-3.13-1.41-3.13-3.13V90.34c0-1.73,1.41-3.13,3.13-3.13h6.94
						c3.92,0,7.12,3.19,7.12,7.12c0,0.95-0.19,1.89-0.56,2.76c1.73,1.49,2.74,3.67,2.74,5.97c0,4.35-3.54,7.88-7.88,7.88H177.19z
						 M185.56,104.67c0.89,0,1.61-0.72,1.61-1.61s-0.72-1.61-1.61-1.61h-5.23v3.23H185.56z M184.13,95.17
						c0.47,0,0.85-0.38,0.85-0.85c0-0.47-0.38-0.85-0.85-0.85h-3.81v1.7H184.13z"/>
					<path d="M184.13,88.08c3.44,0,6.24,2.8,6.24,6.24c0,1.09-0.28,2.12-0.78,3.01c1.79,1.27,2.96,3.36,2.96,5.72
						c0,3.86-3.14,7.01-7.01,7.01h-8.36c-1.25,0-2.26-1.01-2.26-2.26V90.34c0-1.25,1.01-2.26,2.26-2.26H184.13 M179.45,96.05h4.68
						c0.95,0,1.72-0.77,1.72-1.72s-0.77-1.72-1.72-1.72h-4.68V96.05 M179.45,105.54h6.1c1.37,0,2.49-1.12,2.49-2.49
						s-1.12-2.49-2.49-2.49h-6.1V105.54 M184.13,86.33h-6.94c-2.21,0-4.01,1.8-4.01,4.01v17.46c0,2.21,1.8,4.01,4.01,4.01h8.36
						c4.83,0,8.76-3.93,8.76-8.76c0-2.35-0.95-4.58-2.59-6.21c0.27-0.81,0.41-1.66,0.41-2.52
						C192.13,89.92,188.54,86.33,184.13,86.33L184.13,86.33z M181.2,102.32h4.35c0.41,0,0.74,0.33,0.74,0.74s-0.33,0.74-0.74,0.74
						h-4.35V102.32L181.2,102.32z"/>
				</g>
				<g>
					<path class="st3" d="M140.25,151.88c-0.63,0-1.26-0.02-1.88-0.07c-6.78-0.5-12.95-3.62-17.39-8.76
						c-2.83-3.28-4.76-7.18-5.63-11.36c-0.41,0.19-0.86,0.29-1.32,0.29c-0.77,0-1.51-0.28-2.09-0.8c-0.62-0.56-1-1.32-1.04-2.16
						s0.23-1.64,0.79-2.26l3.79-4.25c0.56-0.63,1.33-1,2.16-1.04c0.06,0,0.12,0,0.18,0c0.77,0,1.51,0.28,2.09,0.8l4.44,3.96
						c1.29,1.15,1.4,3.14,0.25,4.42c-0.59,0.67-1.45,1.05-2.34,1.05l0,0c-0.15,0-0.3-0.01-0.46-0.03c0.76,2.67,2.1,5.16,3.93,7.29
						c3.34,3.88,8,6.22,13.11,6.6c0.47,0.04,0.94,0.05,1.41,0.05c6.98,0,13.41-3.79,16.79-9.88c0.55-1,1.6-1.61,2.74-1.61
						c0.53,0,1.05,0.14,1.52,0.39c1.51,0.84,2.06,2.75,1.22,4.26C158.05,146.85,149.51,151.88,140.25,151.88z"/>
					<path d="M117.82,122.34c0.55,0,1.09,0.2,1.5,0.57l4.44,3.96c0.93,0.83,1.01,2.26,0.18,3.19c-0.45,0.5-1.06,0.75-1.69,0.75
						c-0.54,0-1.07-0.19-1.5-0.57l-0.22-0.2c0.63,3.47,2.17,6.73,4.54,9.48c3.5,4.05,8.36,6.51,13.7,6.9
						c0.49,0.04,0.99,0.06,1.48,0.06c7.24,0,14.02-3.94,17.56-10.33c0.41-0.74,1.18-1.16,1.98-1.16c0.37,0,0.75,0.09,1.09,0.28
						c1.09,0.61,1.48,1.98,0.88,3.07c-4.34,7.83-12.65,12.66-21.51,12.66c-0.6,0-1.21-0.02-1.81-0.07
						c-6.54-0.49-12.51-3.49-16.79-8.46c-3.08-3.57-5.02-7.84-5.69-12.39l-0.24,0.27c-0.45,0.5-1.07,0.76-1.69,0.76
						c-0.53,0-1.07-0.19-1.5-0.57c-0.93-0.83-1.01-2.26-0.18-3.19l3.79-4.25c0.4-0.45,0.96-0.72,1.56-0.75
						C117.73,122.34,117.78,122.34,117.82,122.34 M117.82,120.59L117.82,120.59c-0.08,0-0.15,0-0.23,0.01
						c-1.05,0.06-2.06,0.55-2.76,1.33l-3.79,4.25c-1.47,1.65-1.33,4.19,0.32,5.66c0.74,0.66,1.68,1.02,2.67,1.02
						c0.23,0,0.46-0.02,0.68-0.06c0.98,3.97,2.9,7.67,5.61,10.82c4.59,5.32,10.98,8.54,17.99,9.06c0.65,0.05,1.3,0.07,1.94,0.07
						c9.57,0,18.4-5.2,23.04-13.56c1.07-1.93,0.37-4.38-1.56-5.45c-0.59-0.33-1.27-0.5-1.94-0.5c-1.46,0-2.8,0.79-3.51,2.06
						c-3.23,5.82-9.37,9.43-16.03,9.43c-0.44,0-0.9-0.02-1.35-0.05c-4.87-0.36-9.32-2.6-12.51-6.3c-1.5-1.74-2.66-3.74-3.41-5.88
						c0.87-0.16,1.67-0.6,2.26-1.27c0.71-0.8,1.07-1.83,1.01-2.9s-0.53-2.05-1.33-2.76l-4.44-3.96
						C119.75,120.95,118.81,120.59,117.82,120.59L117.82,120.59z"/>
				</g>
				<g>
					<path class="st3" d="M195.84,112.35c-1.73,0-3.13-1.41-3.13-3.13v-2.18c0-1.73,1.41-3.13,3.13-3.13s3.13,1.41,3.13,3.13v2.18
						C198.98,110.95,197.57,112.35,195.84,112.35z"/>
					<path d="M195.84,104.78c1.25,0,2.26,1.01,2.26,2.26v2.18c0,1.25-1.01,2.26-2.26,2.26s-2.26-1.01-2.26-2.26v-2.18
						C193.58,105.79,194.6,104.78,195.84,104.78 M195.84,103.03c-2.21,0-4.01,1.8-4.01,4.01v2.18c0,2.21,1.8,4.01,4.01,4.01
						s4.01-1.8,4.01-4.01v-2.18C199.85,104.83,198.05,103.03,195.84,103.03L195.84,103.03z"/>
				</g>
				<g>
					<path class="st3" d="M162.33,132.58c-0.74,0-1.52-0.34-2.11-0.94l-4.16-4.25c-1.21-1.24-1.19-3.22,0.05-4.43
						c0.59-0.58,1.37-0.89,2.19-0.89c0.22,0,0.45,0.02,0.66,0.07c-0.69-3-2.11-5.81-4.16-8.19c-3.34-3.88-8-6.22-13.11-6.6
						c-0.47-0.04-0.94-0.05-1.4-0.05c-7.41,0-14.24,4.32-17.38,11.01c-0.52,1.09-1.63,1.8-2.84,1.8c-0.46,0-0.91-0.1-1.33-0.3
						c-0.76-0.36-1.33-0.99-1.62-1.77c-0.28-0.79-0.24-1.64,0.11-2.4c4.17-8.88,13.23-14.61,23.07-14.61c0.62,0,1.24,0.02,1.85,0.07
						c6.78,0.5,12.95,3.62,17.39,8.76c3.14,3.64,5.15,8,5.87,12.68c0.35-0.13,0.72-0.2,1.11-0.2c0.85,0,1.64,0.33,2.24,0.94
						c0.59,0.6,0.9,1.39,0.9,2.23c-0.01,0.84-0.34,1.62-0.94,2.21l-4.06,3.98c-0.59,0.58-1.37,0.9-2.19,0.9
						C162.42,132.59,162.36,132.59,162.33,132.58z"/>
					<path d="M140.3,101.9c0.6,0,1.19,0.02,1.79,0.07c6.54,0.49,12.51,3.49,16.79,8.46c3.36,3.89,5.37,8.63,5.85,13.64l0.22-0.21
						c0.44-0.43,1.01-0.65,1.58-0.65c0.59,0,1.17,0.23,1.61,0.68c0.87,0.89,0.86,2.32-0.03,3.19l-4.06,3.98
						c-0.42,0.41-0.99,0.65-1.58,0.65c-0.01,0-0.02,0-0.02,0c-0.6-0.01-1.17-0.25-1.59-0.68l-4.16-4.25
						c-0.87-0.89-0.86-2.32,0.03-3.19c0.44-0.43,1.01-0.64,1.58-0.64c0.59,0,1.17,0.23,1.61,0.68l0.24,0.25
						c-0.49-3.85-2.1-7.48-4.7-10.49c-3.5-4.05-8.36-6.51-13.7-6.9c-0.49-0.04-0.98-0.05-1.47-0.05c-7.69,0-14.87,4.49-18.17,11.51
						c-0.39,0.82-1.2,1.3-2.05,1.3c-0.32,0-0.65-0.07-0.96-0.22c-1.13-0.53-1.61-1.88-1.08-3.01
						C122.07,107.41,130.87,101.9,140.3,101.9 M140.3,100.15L140.3,100.15c-10.17,0-19.54,5.93-23.86,15.11
						c-0.46,0.97-0.51,2.06-0.14,3.06c0.36,1.01,1.1,1.81,2.06,2.27c0.54,0.25,1.11,0.38,1.71,0.38c1.55,0,2.97-0.9,3.63-2.3
						c3-6.38,9.51-10.51,16.59-10.51c0.44,0,0.9,0.02,1.34,0.05c4.88,0.36,9.32,2.6,12.51,6.3c1.7,1.97,2.95,4.25,3.68,6.7
						c-0.87,0.11-1.68,0.49-2.32,1.11c-0.77,0.75-1.19,1.75-1.21,2.82c-0.01,1.07,0.4,2.08,1.14,2.85l4.16,4.25
						c0.74,0.76,1.74,1.19,2.8,1.2c0.02,0,0.04,0,0.06,0c1.05,0,2.05-0.41,2.81-1.14l4.07-3.98c1.58-1.55,1.6-4.09,0.06-5.67
						c-0.76-0.78-1.78-1.2-2.86-1.2c-0.14,0-0.27,0.01-0.4,0.02c-0.86-4.49-2.88-8.67-5.92-12.2c-4.59-5.32-10.98-8.54-17.99-9.06
						C141.58,100.18,140.93,100.15,140.3,100.15L140.3,100.15L140.3,100.15z"/>
				</g>
				<g>
					<path class="st3" d="M174.57,164.3c-1.73,0-3.13-1.41-3.13-3.13V143.7c0-1.73,1.41-3.13,3.13-3.13h6.94
						c3.92,0,7.12,3.19,7.12,7.12c0,0.95-0.19,1.89-0.56,2.76c1.73,1.49,2.74,3.67,2.74,5.97c0,4.35-3.54,7.88-7.88,7.88H174.57z
						 M182.93,158.03c0.89,0,1.61-0.72,1.61-1.61c0-0.89-0.72-1.61-1.61-1.61h-5.23v3.23H182.93z M181.51,148.54
						c0.47,0,0.85-0.38,0.85-0.85c0-0.47-0.38-0.85-0.85-0.85h-3.81v1.7H181.51z"/>
					<path d="M181.51,141.44c3.44,0,6.24,2.8,6.24,6.24c0,1.09-0.28,2.12-0.78,3.01c1.79,1.27,2.96,3.36,2.96,5.72
						c0,3.86-3.14,7.01-7.01,7.01h-8.36c-1.25,0-2.26-1.01-2.26-2.26V143.7c0-1.25,1.01-2.26,2.26-2.26H181.51 M176.83,149.41h4.68
						c0.95,0,1.72-0.77,1.72-1.72s-0.77-1.72-1.72-1.72h-4.68V149.41 M176.83,158.91h6.1c1.37,0,2.49-1.12,2.49-2.49
						c0-1.37-1.12-2.49-2.49-2.49h-6.1V158.91 M181.51,139.69h-6.94c-2.21,0-4.01,1.8-4.01,4.01v17.46c0,2.21,1.8,4.01,4.01,4.01
						h8.36c4.83,0,8.76-3.93,8.76-8.76c0-2.35-0.95-4.58-2.59-6.21c0.27-0.81,0.41-1.66,0.41-2.52
						C189.5,143.28,185.92,139.69,181.51,139.69L181.51,139.69z M178.58,155.68h4.35c0.41,0,0.74,0.33,0.74,0.74
						s-0.33,0.74-0.74,0.74h-4.35V155.68L178.58,155.68z"/>
				</g>
				<g>
					<path class="st3" d="M138.08,191.69c-4.14,0-7.5-3.36-7.5-7.5v-8.73c0-4.13,3.37-7.5,7.5-7.5h4.37c4.14,0,7.5,3.36,7.5,7.5
						c0,1.73-1.41,3.13-3.13,3.13s-3.13-1.41-3.13-3.13c0-0.68-0.55-1.23-1.24-1.23h-4.37c-0.68,0-1.24,0.55-1.24,1.23v8.73
						c0,0.68,0.55,1.23,1.24,1.23h4.37c0.68,0,1.24-0.55,1.24-1.23c0-1.73,1.41-3.13,3.13-3.13s3.13,1.41,3.13,3.13
						c0,4.14-3.37,7.5-7.5,7.5H138.08z"/>
					<path d="M142.45,168.83c3.66,0,6.63,2.97,6.63,6.62c0,1.25-1.01,2.26-2.26,2.26s-2.26-1.01-2.26-2.26
						c0-1.16-0.95-2.11-2.11-2.11h-4.37c-1.16,0-2.11,0.94-2.11,2.11v8.73c0,1.16,0.95,2.11,2.11,2.11h4.37
						c1.16,0,2.11-0.94,2.11-2.11c0-1.25,1.01-2.26,2.26-2.26s2.26,1.01,2.26,2.26c0,3.65-2.97,6.62-6.63,6.62h-4.37
						c-3.65,0-6.63-2.97-6.63-6.62v-8.73c0-3.65,2.97-6.62,6.63-6.62H142.45 M142.45,167.08h-4.37c-4.62,0-8.38,3.76-8.38,8.37v8.73
						c0,4.62,3.76,8.37,8.38,8.37h4.37c4.62,0,8.38-3.76,8.38-8.37c0-2.21-1.8-4.01-4.01-4.01s-4.01,1.8-4.01,4.01
						c0,0.2-0.16,0.36-0.36,0.36h-4.37c-0.2,0-0.36-0.16-0.36-0.36v-8.73c0-0.2,0.16-0.36,0.36-0.36h4.37c0.2,0,0.36,0.16,0.36,0.36
						c0,2.21,1.8,4.01,4.01,4.01s4.01-1.8,4.01-4.01C150.83,170.84,147.07,167.08,142.45,167.08L142.45,167.08z"/>
				</g>
				<g>
					<path class="st3" d="M192.93,165.72c-1.73,0-3.13-1.41-3.13-3.13v-2.18c0-1.73,1.41-3.13,3.13-3.13s3.13,1.41,3.13,3.13v2.18
						C196.06,164.31,194.65,165.72,192.93,165.72z"/>
					<path d="M192.93,158.14c1.25,0,2.26,1.01,2.26,2.26v2.18c0,1.25-1.01,2.26-2.26,2.26c-1.25,0-2.26-1.01-2.26-2.26v-2.18
						C190.67,159.15,191.68,158.14,192.93,158.14 M192.93,156.39c-2.21,0-4.01,1.8-4.01,4.01v2.18c0,2.21,1.8,4.01,4.01,4.01
						c2.21,0,4.01-1.8,4.01-4.01v-2.18C196.93,158.19,195.14,156.39,192.93,156.39L192.93,156.39z"/>
				</g>
				<g>
					<path class="st3" d="M186.48,177.76c-4.3,0-8.54-1.14-12.28-3.29c-5.7-3.29-9.78-8.6-11.48-14.95s-0.83-12.99,2.46-18.69
						c4.39-7.59,12.58-12.31,21.38-12.31c4.3,0,8.55,1.14,12.28,3.29c5.7,3.29,9.78,8.6,11.48,14.95c1.7,6.35,0.83,12.99-2.46,18.69
						C203.47,173.05,195.28,177.76,186.48,177.76z M186.55,134.79c-6.57,0-12.68,3.52-15.95,9.18c-2.45,4.25-3.11,9.19-1.84,13.93
						c1.27,4.74,4.31,8.69,8.56,11.15c2.79,1.61,5.95,2.46,9.16,2.46c6.57,0,12.68-3.52,15.95-9.18c2.45-4.25,3.11-9.19,1.84-13.93
						c-1.27-4.74-4.31-8.69-8.56-11.15C192.92,135.64,189.76,134.79,186.55,134.79z"/>
					<path d="M186.56,129.4c4.03,0,8.11,1.02,11.84,3.18c5.5,3.17,9.43,8.29,11.08,14.42c1.64,6.13,0.8,12.53-2.38,18.02
						c-4.4,7.61-12.4,11.87-20.62,11.87c-4.03,0-8.11-1.02-11.84-3.18c-5.5-3.17-9.43-8.29-11.08-14.42
						c-1.64-6.13-0.8-12.53,2.38-18.02C170.33,133.66,178.34,129.4,186.56,129.4 M186.49,172.37c6.66,0,13.14-3.45,16.7-9.61
						c2.57-4.45,3.25-9.63,1.92-14.59c-1.33-4.96-4.52-9.11-8.97-11.68c-3.02-1.74-6.33-2.57-9.59-2.57
						c-6.66,0-13.14,3.45-16.71,9.61c-2.57,4.45-3.25,9.63-1.92,14.59c1.33,4.96,4.52,9.11,8.97,11.68
						C179.92,171.54,183.22,172.37,186.49,172.37 M186.56,127.65c-9.11,0-17.6,4.88-22.14,12.74c-3.41,5.9-4.32,12.77-2.55,19.35
						c1.77,6.58,5.99,12.08,11.89,15.48c3.87,2.23,8.27,3.41,12.72,3.41c9.11,0,17.6-4.88,22.14-12.74
						c3.41-5.9,4.32-12.77,2.55-19.35c-1.77-6.58-5.99-12.08-11.89-15.48C195.41,128.83,191.01,127.65,186.56,127.65L186.56,127.65z
						 M186.49,170.62c-3.05,0-6.07-0.81-8.72-2.34c-4.05-2.33-6.94-6.1-8.15-10.62c-1.21-4.51-0.59-9.22,1.75-13.26
						c3.12-5.39,8.94-8.74,15.19-8.74c3.05,0,6.07,0.81,8.72,2.34c4.05,2.33,6.94,6.1,8.15,10.62c1.21,4.51,0.59,9.22-1.75,13.26
						C198.56,167.27,192.74,170.62,186.49,170.62L186.49,170.62z"/>
				</g>
				<g>
					<path class="st3" d="M198.47,165.72c-1.73,0-3.13-1.41-3.13-3.13v-2.18c0-1.73,1.41-3.13,3.13-3.13c1.73,0,3.13,1.41,3.13,3.13
						v2.18C201.6,164.31,200.2,165.72,198.47,165.72z"/>
					<path d="M198.47,158.14c1.25,0,2.26,1.01,2.26,2.26v2.18c0,1.25-1.01,2.26-2.26,2.26s-2.26-1.01-2.26-2.26v-2.18
						C196.21,159.15,197.22,158.14,198.47,158.14 M198.47,156.39c-2.21,0-4.01,1.8-4.01,4.01v2.18c0,2.21,1.8,4.01,4.01,4.01
						s4.01-1.8,4.01-4.01v-2.18C202.48,158.19,200.68,156.39,198.47,156.39L198.47,156.39z"/>
				</g>
				<g>
					<path class="st3" d="M93.97,124.4c-4.3,0-8.54-1.14-12.28-3.29c-5.7-3.29-9.78-8.6-11.48-14.95
						c-1.7-6.35-0.83-12.99,2.46-18.69c0.56-0.97,1.6-1.57,2.72-1.57c0.55,0,1.09,0.15,1.57,0.42c0.72,0.42,1.24,1.09,1.46,1.9
						c0.22,0.81,0.1,1.65-0.31,2.38c-2.45,4.25-3.11,9.19-1.83,13.93c1.27,4.74,4.31,8.69,8.56,11.15c2.79,1.61,5.95,2.46,9.16,2.46
						c6.57,0,12.68-3.52,15.95-9.18c2.45-4.25,3.11-9.19,1.83-13.93c-1.27-4.74-4.31-8.69-8.56-11.15c-2.78-1.6-5.95-2.45-9.18-2.45
						c-4.32,0-8.51,1.51-11.79,4.25c-0.56,0.47-1.27,0.73-2.01,0.73c-0.93,0-1.81-0.41-2.41-1.13c-0.54-0.64-0.79-1.46-0.71-2.29
						c0.08-0.83,0.47-1.59,1.11-2.12c4.41-3.68,10.02-5.7,15.81-5.7c4.33,0,8.58,1.13,12.31,3.28c5.7,3.29,9.78,8.6,11.48,14.95
						c1.71,6.36,0.83,12.99-2.46,18.69C110.96,119.68,102.77,124.4,93.97,124.4L93.97,124.4z"/>
					<path d="M94.02,76.05c4.09,0,8.19,1.04,11.87,3.17c5.5,3.17,9.43,8.29,11.08,14.42c1.64,6.13,0.8,12.53-2.38,18.02
						c-4.4,7.61-12.4,11.87-20.62,11.87c0,0,0,0,0,0c-4.03,0-8.11-1.02-11.84-3.18c-5.5-3.17-9.43-8.29-11.08-14.42
						c-1.64-6.13-0.8-12.53,2.38-18.02c0.42-0.72,1.18-1.13,1.96-1.13c0.38,0,0.77,0.1,1.13,0.3c1.08,0.62,1.45,2.01,0.83,3.09
						c-2.57,4.45-3.25,9.63-1.92,14.59c1.33,4.96,4.52,9.11,8.97,11.68c3.02,1.74,6.33,2.57,9.59,2.57c6.66,0,13.14-3.45,16.71-9.61
						c2.57-4.45,3.25-9.63,1.92-14.59c-1.33-4.96-4.52-9.11-8.97-11.68c-2.98-1.72-6.3-2.57-9.62-2.57c-4.42,0-8.82,1.51-12.35,4.45
						c-0.42,0.35-0.94,0.52-1.45,0.52c-0.65,0-1.29-0.28-1.74-0.81c-0.8-0.96-0.67-2.38,0.29-3.18
						C83.13,77.91,88.56,76.04,94.02,76.05 M94.02,74.3C94.02,74.3,94.02,74.3,94.02,74.3c-5.99,0-11.81,2.1-16.37,5.9
						c-0.82,0.69-1.33,1.65-1.42,2.72c-0.07,0.83,0.1,1.64,0.51,2.34c-0.43-0.16-0.89-0.24-1.35-0.24c-1.43,0-2.76,0.77-3.47,2
						c-3.41,5.9-4.31,12.77-2.55,19.35c1.77,6.58,5.99,12.08,11.89,15.48c3.87,2.23,8.26,3.41,12.71,3.41
						c9.12,0,17.6-4.88,22.14-12.74c3.41-5.9,4.31-12.77,2.55-19.35c-1.76-6.58-5.99-12.08-11.89-15.48
						C102.91,75.47,98.5,74.3,94.02,74.3L94.02,74.3L94.02,74.3z M80.22,87.29c0.94,0,1.85-0.33,2.57-0.93
						c3.13-2.61,7.12-4.05,11.23-4.05c3.08,0,6.1,0.81,8.74,2.33c4.05,2.33,6.94,6.1,8.15,10.62c1.21,4.51,0.59,9.22-1.75,13.26
						c-3.11,5.39-8.94,8.74-15.19,8.74c-3.05,0-6.07-0.81-8.72-2.34c-4.05-2.34-6.94-6.11-8.15-10.62
						c-1.21-4.51-0.59-9.22,1.75-13.26c0.54-0.93,0.68-2.01,0.4-3.04c-0.09-0.33-0.22-0.65-0.39-0.94
						C79.3,87.21,79.75,87.29,80.22,87.29L80.22,87.29z"/>
				</g>
				<g>
					<path class="st3" d="M140.26,204.45c-13.59,0-24.64-11.05-24.64-24.63c0-13.58,11.06-24.62,24.64-24.62
						c1.73,0,3.13,1.41,3.13,3.13s-1.41,3.13-3.13,3.13c-10.13,0-18.38,8.24-18.38,18.36s8.24,18.36,18.38,18.36
						s18.38-8.24,18.38-18.36c0-7.62-4.59-14.34-11.7-17.11c-1.61-0.63-2.41-2.45-1.78-4.06c0.47-1.21,1.62-2,2.92-2
						c0.39,0,0.77,0.07,1.14,0.21c4.57,1.78,8.48,4.86,11.29,8.9c2.88,4.14,4.41,9,4.41,14.05
						C164.91,193.4,153.85,204.45,140.26,204.45z"/>
					<path d="M140.26,156.07c1.25,0,2.26,1.01,2.26,2.26s-1.01,2.26-2.26,2.26c-10.62,0-19.25,8.63-19.25,19.23
						c0,10.6,8.64,19.23,19.25,19.23c10.62,0,19.25-8.63,19.25-19.23c0-7.99-4.81-15.02-12.26-17.92c-1.16-0.45-1.74-1.76-1.29-2.93
						c0.35-0.89,1.2-1.44,2.11-1.44c0.27,0,0.55,0.05,0.82,0.15c4.41,1.72,8.17,4.69,10.89,8.58c2.78,3.99,4.25,8.68,4.25,13.55
						c0,13.1-10.66,23.75-23.77,23.75c-13.11,0-23.77-10.66-23.77-23.75S127.16,156.07,140.26,156.07 M140.26,154.32
						c-14.07,0-25.52,11.44-25.52,25.5c0,14.06,11.45,25.5,25.52,25.5s25.52-11.44,25.52-25.5c0-5.24-1.58-10.27-4.56-14.55
						c-2.91-4.18-6.95-7.37-11.69-9.21c-0.47-0.18-0.96-0.27-1.45-0.27c-1.67,0-3.13,1-3.74,2.55c-0.03,0.07-0.05,0.14-0.08,0.21
						c0-0.07,0.01-0.14,0.01-0.22C144.27,156.12,142.47,154.32,140.26,154.32L140.26,154.32z M140.26,197.31
						c-9.65,0-17.5-7.84-17.5-17.48c0-9.64,7.85-17.48,17.5-17.48c1.78,0,3.29-1.16,3.81-2.76c-0.09,1.68,0.9,3.31,2.55,3.95
						c6.77,2.64,11.14,9.03,11.14,16.29C157.76,189.46,149.91,197.31,140.26,197.31L140.26,197.31z"/>
				</g>
				<g>
					<path class="st3" d="M88.55,111.65c-1.73,0-3.13-1.41-3.13-3.13V91.05c0-1.73,1.41-3.13,3.13-3.13h10.92
						c1.73,0,3.13,1.41,3.13,3.13c0,1.73-1.41,3.13-3.13,3.13h-7.79v1.7h5.22c1.73,0,3.13,1.41,3.13,3.13
						c0,1.73-1.41,3.13-3.13,3.13h-5.22v3.23h7.79c1.73,0,3.13,1.41,3.13,3.13c0,1.73-1.41,3.13-3.13,3.13H88.55z"/>
					<path d="M99.47,88.79c1.25,0,2.26,1.01,2.26,2.26c0,1.25-1.01,2.26-2.26,2.26h-8.66v3.45h6.1c1.25,0,2.26,1.01,2.26,2.26
						c0,1.25-1.01,2.26-2.26,2.26h-6.1v4.98h8.66c1.25,0,2.26,1.01,2.26,2.26c0,1.25-1.01,2.26-2.26,2.26H88.55
						c-1.25,0-2.26-1.01-2.26-2.26V91.05c0-1.25,1.01-2.26,2.26-2.26H99.47 M99.47,87.04H88.55c-2.21,0-4.01,1.8-4.01,4.01v17.46
						c0,2.21,1.8,4.01,4.01,4.01h10.92c2.21,0,4.01-1.8,4.01-4.01s-1.8-4.01-4.01-4.01h-6.91v-1.48h4.35c2.21,0,4.01-1.8,4.01-4.01
						c0-1.99-1.46-3.65-3.37-3.96h1.92c2.21,0,4.01-1.8,4.01-4.01S101.68,87.04,99.47,87.04L99.47,87.04z"/>
				</g>
				<g>
					<path class="st3" d="M87.46,165.01c-1.73,0-3.13-1.41-3.13-3.13v-17.46c0-1.73,1.41-3.13,3.13-3.13h4.38
						c6.54,0,11.86,5.32,11.86,11.87s-5.32,11.87-11.86,11.87H87.46z M91.83,158.74c3.09,0,5.6-2.51,5.6-5.6s-2.51-5.6-5.6-5.6
						h-1.24v11.19H91.83z"/>
					<path d="M91.83,142.15c6.06,0,10.99,4.93,10.99,10.99c0,6.06-4.93,10.99-10.99,10.99h-4.38c-1.25,0-2.26-1.01-2.26-2.26v-17.46
						c0-1.25,1.01-2.26,2.26-2.26H91.83 M89.71,159.61h2.12c3.57,0,6.47-2.9,6.47-6.47s-2.9-6.47-6.47-6.47h-2.12V159.61
						 M91.83,140.4h-4.38c-2.21,0-4.01,1.8-4.01,4.01v17.46c0,2.21,1.8,4.01,4.01,4.01h4.38c7.02,0,12.74-5.72,12.74-12.74
						C104.57,146.12,98.86,140.4,91.83,140.4L91.83,140.4z M91.46,148.42h0.37c2.6,0,4.72,2.12,4.72,4.72s-2.12,4.72-4.72,4.72
						h-0.37V148.42L91.46,148.42z"/>
				</g>
				<g>
					<path class="st3" d="M94.05,177.76c-8.8,0-17-4.72-21.38-12.31c-3.29-5.7-4.17-12.33-2.46-18.69
						c1.7-6.35,5.78-11.66,11.48-14.95c3.74-2.16,7.98-3.29,12.28-3.29c8.8,0,17,4.72,21.38,12.31c3.29,5.7,4.17,12.33,2.46,18.69
						c-1.7,6.35-5.78,11.66-11.48,14.95C102.59,176.62,98.35,177.76,94.05,177.76z M93.98,134.79c-3.21,0-6.37,0.85-9.16,2.46
						c-4.25,2.45-7.29,6.41-8.56,11.15c-1.27,4.74-0.62,9.68,1.84,13.93c3.27,5.66,9.38,9.18,15.95,9.18c3.21,0,6.37-0.85,9.16-2.46
						c4.25-2.45,7.29-6.41,8.56-11.15c1.27-4.73,0.62-9.68-1.84-13.93C106.65,138.31,100.54,134.79,93.98,134.79z"/>
					<path d="M93.97,129.4c8.22,0,16.23,4.26,20.62,11.87c3.18,5.49,4.02,11.9,2.38,18.02c-1.64,6.13-5.58,11.25-11.08,14.42
						c-3.73,2.15-7.81,3.18-11.84,3.18c-8.22,0-16.23-4.26-20.62-11.87c-3.18-5.49-4.02-11.9-2.38-18.02
						c1.64-6.13,5.58-11.25,11.08-14.42C85.86,130.42,89.94,129.4,93.97,129.4 M94.04,172.37c3.26,0,6.57-0.83,9.59-2.57
						c4.45-2.57,7.64-6.72,8.97-11.68c1.33-4.96,0.65-10.14-1.92-14.59c-3.56-6.16-10.05-9.61-16.71-9.61
						c-3.26,0-6.57,0.83-9.59,2.57c-4.45,2.57-7.64,6.72-8.97,11.68c-1.33,4.96-0.65,10.14,1.92,14.59
						C80.9,168.92,87.38,172.37,94.04,172.37 M93.97,127.65c-4.45,0-8.85,1.18-12.72,3.41c-5.9,3.41-10.13,8.9-11.89,15.48
						c-1.76,6.58-0.86,13.45,2.55,19.35c4.54,7.86,13.03,12.74,22.14,12.74c4.45,0,8.85-1.18,12.72-3.41
						c5.9-3.41,10.13-8.9,11.89-15.48c1.76-6.58,0.86-13.45-2.55-19.35C111.57,132.53,103.08,127.65,93.97,127.65L93.97,127.65z
						 M94.04,170.62c-6.25,0-12.08-3.35-15.19-8.74c-2.34-4.04-2.96-8.75-1.75-13.26c1.21-4.51,4.1-8.28,8.15-10.62
						c2.65-1.53,5.67-2.34,8.72-2.34c6.25,0,12.08,3.35,15.19,8.74c2.34,4.04,2.96,8.75,1.75,13.26c-1.21,4.51-4.1,8.28-8.15,10.62
						C100.11,169.81,97.09,170.62,94.04,170.62L94.04,170.62z"/>
				</g>
			</g>
		</g>
	</g>
</g>
</svg>
