<?xml version="1.0" encoding="utf-8"?>
<!-- Generator: Adobe Illustrator 28.1.0, SVG Export Plug-In . SVG Version: 6.00 Build 0)  -->
<svg version="1.1" id="Layer_1" xmlns="http://www.w3.org/2000/svg" xmlns:xlink="http://www.w3.org/1999/xlink" x="0px" y="0px"
	 viewBox="0 0 280.53 237.06" style="enable-background:new 0 0 280.53 237.06;" xml:space="preserve">
<style type="text/css">
	.st0{fill:#EFBFE2;}
	.st1{fill:#F7BE8B;}
	.st2{fill:#CE4D4D;}
	.st3{fill:#FFFAFF;}
	.st4{fill:#A5A5A5;}
	.st5{fill:#FFFAFF;stroke:#000000;stroke-width:2.5;stroke-miterlimit:10;}
	.st6{fill:#77D895;}
	.st7{fill:#272727;}
	.st8{fill:#BFE090;}
	.st9{fill:#FFFFFF;}
	.st10{fill:#CDE3EE;}
	.st11{fill:#FF8888;}
	.st12{fill:#EFAFBB;}
	.st13{fill:#E88858;}
	.st14{fill:#C5C2F9;}
	.st15{fill:#75B8EF;}
</style>
<g>
	<g>
		<g>
			<g id="XMLID_00000100354692711717017700000002358426114131581584_">
				<path class="st6" d="M70.52,34.36c-31.05,16.13-54.14,46.8-61.07,81.09c-2.86,14.17-3.04,29.13,1.48,42.86
					c5.13,15.55,16.01,28.69,28.69,39.04c33.07,26.97,77.91,35.92,120.52,33.57c33.87-1.87,69.24-11.42,92.44-36.16
					c23.2-24.74,29.02-67.55,5.59-92.07c-9.34-9.77-22.02-15.69-32-24.81c-24.05-21.96-33.15-62.31-64.64-70.63
					c-9.65-2.55-19.88-1.39-29.7,0.41C105.24,12.52,84.14,27.28,70.52,34.36"/>
			</g>
			<g id="XMLID_00000111159066747640085830000001179090934683961223_">
				<path class="st6" d="M250.48,64.21c5.69-2.12,10.32-6.91,12.24-12.66c0.79-2.38,1.14-4.95,0.66-7.41
					c-0.55-2.79-2.15-5.28-4.11-7.33c-5.12-5.35-12.65-7.85-20.04-8.35c-5.87-0.4-12.17,0.49-16.69,4.26
					c-4.52,3.77-6.44,11.02-2.92,15.74c1.4,1.88,3.46,3.17,4.98,4.95c3.67,4.29,4.38,11.44,9.63,13.54
					c1.61,0.64,3.39,0.66,5.12,0.56C244.04,67.23,247.99,65.14,250.48,64.21"/>
			</g>
		</g>
	</g>
	<g>
		<path class="st3" d="M182.24,193.87H99.28c-17.25,0-31.23-13.98-31.23-31.23V84.03c0-17.25,13.98-31.23,31.23-31.23h82.95
			c17.25,0,31.23,13.98,31.23,31.23v78.61C213.46,179.89,199.48,193.87,182.24,193.87z"/>
		<g>
			<g>
				<path class="st7" d="M186.53,197.66c-30.98,0-61.96,0-92.95,0c-0.32-0.09-0.63-0.21-0.95-0.26
					c-11.84-1.77-19.84-8.33-23.98-19.51c-0.8-2.15-1.07-4.49-1.59-6.74c0-30.98,0-61.95,0-92.93c0.24-1.25,0.42-2.52,0.72-3.76
					c3.3-13.73,14.65-22.71,28.8-22.72c28.97-0.02,57.95-0.02,86.92,0.02c2.22,0,4.49,0.18,6.64,0.66
					c13.47,3,22.78,14.39,22.83,28.25c0.1,29.35,0.1,58.7,0,88.04c-0.04,12.57-7.58,23-19.44,27.24
					C191.29,196.76,188.87,197.1,186.53,197.66z M139.98,193.21c14.35,0,28.69,0.02,43.04-0.03c2.12-0.01,4.3-0.12,6.35-0.6
					c11.69-2.73,19.19-12.28,19.21-24.47c0.04-28.97,0.05-57.95-0.04-86.92c-0.01-2.8-0.41-5.73-1.31-8.38
					c-3.54-10.44-12.63-16.65-23.99-16.66c-28.79-0.02-57.58-0.02-86.37,0.02c-2.03,0-4.11,0.13-6.07,0.59
					c-11.69,2.71-19.25,12.25-19.28,24.42c-0.05,29.02-0.01,58.04-0.02,87.06c0,5.33,1.37,10.25,4.52,14.57
					c5.12,7.02,12.1,10.42,20.77,10.41C111.19,193.2,125.58,193.21,139.98,193.21z"/>
				<path class="st7" d="M140.2,65.11c8.79,0,17.58-0.1,26.36,0.03c7.41,0.11,13.89,6.32,14.57,13.68
					c0.87,9.45-5.87,17.14-15.5,17.22c-17.05,0.14-34.1,0.11-51.16,0.01c-7.92-0.05-14.26-5.56-15.42-12.97
					c-1.18-7.54,3.09-14.74,10.34-17.13c1.76-0.58,3.72-0.81,5.59-0.83c8.41-0.09,16.81-0.04,25.22-0.04
					C140.2,65.09,140.2,65.1,140.2,65.11z M140.02,91.65c3.28,0,6.56,0,9.83,0c5.32,0,10.64,0.06,15.96-0.03
					c4.86-0.08,9-3.12,10.41-7.47c1.52-4.7,0.08-9.42-3.85-12.46c-2.24-1.73-4.86-2.26-7.63-2.26c-16.1,0-32.21,0-48.31,0.01
					c-1.14,0-2.28,0.07-3.41,0.18c-5.98,0.61-10.46,6.3-9.65,12.25c0.79,5.84,5.31,9.74,11.43,9.77
					C123.21,91.67,131.62,91.65,140.02,91.65z"/>
				<path class="st7" d="M140.05,179.63c-6.75,0-13.49,0-20.24,0c-0.43,0-0.86,0.02-1.28-0.03c-1.37-0.18-2.16-1.01-2.14-2.22
					c0.02-1.2,0.84-2.01,2.21-2.16c0.38-0.04,0.76-0.02,1.14-0.02c13.54,0,27.08,0,40.62,0c2.28,0,3.32,0.68,3.35,2.18
					c0.03,1.55-1.04,2.26-3.42,2.26C153.55,179.63,146.8,179.63,140.05,179.63z"/>
				<path class="st7" d="M140.34,80.84c0.46,2.47,1.03,4.93,1.32,7.41c0.17,1.5-1.18,1.08-2.05,1.15c-1.08,0.08-1.34-0.64-1.2-1.46
					c0.4-2.36,0.9-4.71,1.36-7.07C139.96,80.87,140.15,80.86,140.34,80.84z"/>
				<path class="st7" d="M167.9,84.56c0.44-0.64,0.81-1.16,1.22-1.76c0.62,0.44,1.14,0.82,1.8,1.29c-0.45,0.59-0.86,1.12-1.32,1.72
					C169.03,85.38,168.54,85.03,167.9,84.56z"/>
				<path class="st7" d="M125.42,75.66c0.82-0.22,1.44-0.39,2.17-0.59c0.18,0.74,0.33,1.36,0.5,2.07c-0.67,0.19-1.24,0.36-1.98,0.57
					C125.88,77.05,125.68,76.45,125.42,75.66z"/>
				<path class="st7" d="M145.78,73.92c-0.12,0.78-0.2,1.36-0.31,2.06c-0.67-0.03-1.25-0.06-1.92-0.09c0-0.71,0-1.34,0-2.16
					C144.26,73.79,144.92,73.84,145.78,73.92z"/>
				<path class="st7" d="M118.94,78.05c0.32,0.72,0.56,1.27,0.86,1.95c-0.62,0.3-1.19,0.58-1.87,0.91c-0.34-0.65-0.64-1.22-1-1.91
					C117.6,78.69,118.18,78.42,118.94,78.05z"/>
				<path class="st7" d="M161.22,78.24c0.67,0.33,1.25,0.62,1.97,0.98c-0.32,0.62-0.61,1.19-0.97,1.89c-0.63-0.3-1.2-0.57-1.92-0.9
					C160.62,79.52,160.91,78.91,161.22,78.24z"/>
				<path class="st7" d="M112.21,84.3c-0.61,0.44-1.1,0.79-1.7,1.23c-0.44-0.57-0.85-1.11-1.32-1.71c0.61-0.45,1.13-0.83,1.77-1.3
					C111.37,83.12,111.74,83.64,112.21,84.3z"/>
				<path class="st7" d="M136.7,75.85c-0.76,0.04-1.32,0.07-1.98,0.11c-0.12-0.64-0.22-1.22-0.36-1.98
					c0.74-0.12,1.41-0.23,2.22-0.36C136.63,74.39,136.66,75.04,136.7,75.85z"/>
				<path class="st7" d="M152.08,77.13c0.15-0.57,0.29-1.16,0.49-1.93c0.71,0.19,1.35,0.37,1.98,0.54
					C154.29,77.96,154.13,78.05,152.08,77.13z"/>
			</g>
		</g>
	</g>
</g>
</svg>
