<?xml version="1.0" encoding="utf-8"?>
<!-- Generator: Adobe Illustrator 28.1.0, SVG Export Plug-In . SVG Version: 6.00 Build 0)  -->
<svg version="1.1" id="Layer_1" xmlns="http://www.w3.org/2000/svg" xmlns:xlink="http://www.w3.org/1999/xlink" x="0px" y="0px"
	 viewBox="0 0 280.53 237.06" style="enable-background:new 0 0 280.53 237.06;" xml:space="preserve">
<style type="text/css">
	.st0{fill:#EFBFE2;}
	.st1{fill:#F7BE8B;}
	.st2{fill:#CE4D4D;}
	.st3{fill:#FFFAFF;}
	.st4{fill:#A5A5A5;}
	.st5{fill:#FFFAFF;stroke:#000000;stroke-width:2.5;stroke-miterlimit:10;}
	.st6{fill:#77D895;}
	.st7{fill:#272727;}
	.st8{fill:#BFE090;}
	.st9{fill:#FFFFFF;}
	.st10{fill:#CDE3EE;}
	.st11{fill:#FF8888;}
	.st12{fill:#EFAFBB;}
	.st13{fill:#E88858;}
	.st14{fill:#C5C2F9;}
	.st15{fill:#75B8EF;}
</style>
<g>
	<path id="XMLID_00000129901524473320298390000003424399830286755003_" class="st12" d="M70.52,34.36
		c-31.05,16.13-54.14,46.8-61.07,81.09c-2.86,14.17-3.04,29.13,1.48,42.86c5.13,15.55,16.01,28.69,28.69,39.04
		c33.07,26.97,77.91,35.92,120.52,33.57c33.87-1.87,69.24-11.42,92.44-36.16c23.2-24.74,29.02-67.55,5.59-92.07
		c-9.34-9.77-22.02-15.69-32-24.81c-24.05-21.96-33.15-62.31-64.64-70.63c-9.65-2.55-19.88-1.39-29.7,0.41
		C105.24,12.52,84.14,27.28,70.52,34.36"/>
	<path id="XMLID_00000125566873741169838200000000288202552668253848_" class="st12" d="M250.48,64.21
		c5.69-2.12,10.32-6.91,12.24-12.66c0.79-2.38,1.14-4.95,0.66-7.41c-0.55-2.79-2.15-5.28-4.11-7.33
		c-5.12-5.35-12.65-7.85-20.04-8.35c-5.87-0.4-12.17,0.49-16.69,4.26c-4.52,3.77-6.44,11.02-2.92,15.74
		c1.4,1.88,3.46,3.17,4.98,4.95c3.67,4.29,4.38,11.44,9.63,13.54c1.61,0.64,3.39,0.66,5.12,0.56
		C244.04,67.23,247.99,65.14,250.48,64.21"/>
</g>
<g>
	<path class="st5" d="M161.51,172.06c-19.57,2.61-30.01,13.38-29.69,12.07c0.33-1.31,8.48-21.86,32.95-25.45l-2.45-7.18
		c24.27-13.33,17.62-32.3,13.21-47.46c3.43,34.25-23,44.04-38.66,42.57c-15.66-1.47-14.19-14.68-14.19-14.68
		c4.4,9.3,23.49,9.3,21.53-9.79c-1.96-19.08-20.06-27.89-25.44-46c-5.38-18.11,8.32-26.91,8.32-26.91
		c-13.7,4.4-26.59,23.81-28.67,33.15c-0.51,2.31-0.73,4.68-1.31,6.97c-0.07,0.25-0.13,0.52-0.2,0.79c-1.35-0.02-3.48-0.48-6.53-2.27
		c0,0,1.91,3.94,6.05,3.9c-0.49,1.52-1.15,3.04-2.13,4.11c-1.73,1.89-3.05,3.37-4.92,5.21c-1.32,1.3-2.78,2.49-3.72,4.08
		c-0.94,1.59-1.24,3.74-0.15,5.23c1.24,1.69,3.95,2.21,4.47,4.24c0.62,2.42-2.53,4.55-2.08,7c0.35,1.9,2.67,2.87,3.2,4.72
		c-0.97-0.01-1.93,0.56-2.39,1.41c-0.46,0.86-0.42,1.97,0.12,2.78c1.02,1.55,3.57,2.01,3.83,3.85c0.17,1.16-0.72,2.16-1.28,3.19
		c-1.64,3-0.37,7,2.25,9.2c2.62,2.2,6.24,2.85,9.65,2.65c4.47-0.26,8.49-0.28,12.96-0.47c2.35-0.1,4.83-0.17,6.89,0.96
		c1.48,0.82,2.58,2.18,3.5,3.59c0,0,5.17,2.21,2.56,13.3c-2.61,11.09-21.21,25.45-21.21,41.76c0,0,49.59-42.41,84.49-29.36
		C192.5,179.24,186.96,168.8,161.51,172.06"/>
	<path class="st5" d="M124.16,44.84c9.95-6.2,41.59-3.91,45.02-8.81c-7.83,2.45-18.59-2.45-44.04,0.49
		C91.87,41.9,89.42,78.11,92.35,87.41C95.78,55.6,124.16,44.84,124.16,44.84"/>
	<path class="st5" d="M150.48,67c0,0,17.9,28.74,8.55,59.8C164.9,121.95,178.59,91.8,150.48,67"/>
	<path class="st5" d="M167.4,50.33c4.71,0,8.53,3.82,8.53,8.53c0,4.71-3.82,8.53-8.53,8.53c-4.71,0-8.53-3.82-8.53-8.53
		C158.87,54.14,162.69,50.33,167.4,50.33"/>
	<path class="st5" d="M188.65,50.33c4.71,0,8.53,3.82,8.53,8.53c0,4.71-3.82,8.53-8.53,8.53c-4.71,0-8.53-3.82-8.53-8.53
		C180.13,54.14,183.94,50.33,188.65,50.33"/>
	<path class="st5" d="M169.5,69.48c0-4.71,3.82-8.53,8.53-8.53c4.71,0,8.53,3.82,8.53,8.53c0,4.71-3.82,8.53-8.53,8.53
		C173.31,78.01,169.5,74.19,169.5,69.48"/>
	<path class="st5" d="M169.5,48.23c0-4.71,3.82-8.53,8.53-8.53c4.71,0,8.53,3.82,8.53,8.53c0,4.71-3.82,8.53-8.53,8.53
		C173.31,56.75,169.5,52.93,169.5,48.23"/>
	<path class="st5" d="M177.75,50.33c4.71,0,8.53,3.82,8.53,8.53c0,4.71-3.82,8.53-8.53,8.53c-4.71,0-8.53-3.82-8.53-8.53
		C169.22,54.14,173.04,50.33,177.75,50.33"/>
	<path class="st5" d="M192.88,85.32c3.08,0,5.57,2.49,5.57,5.57c0,3.08-2.5,5.57-5.57,5.57c-3.08,0-5.57-2.5-5.57-5.57
		C187.31,87.81,189.81,85.32,192.88,85.32"/>
	<path class="st5" d="M206.77,85.32c3.08,0,5.57,2.49,5.57,5.57c0,3.08-2.49,5.57-5.57,5.57c-3.08,0-5.57-2.5-5.57-5.57
		C201.2,87.81,203.7,85.32,206.77,85.32"/>
	<path class="st5" d="M194.26,97.83c0-3.08,2.49-5.57,5.57-5.57c3.08,0,5.57,2.5,5.57,5.57c0,3.08-2.5,5.57-5.57,5.57
		C196.75,103.41,194.26,100.91,194.26,97.83"/>
	<path class="st5" d="M194.26,83.94c0-3.08,2.49-5.57,5.57-5.57c3.08,0,5.57,2.49,5.57,5.57c0,3.08-2.5,5.57-5.57,5.57
		C196.75,89.52,194.26,87.02,194.26,83.94"/>
	<path class="st5" d="M199.65,85.32c3.08,0,5.57,2.49,5.57,5.57c0,3.08-2.49,5.57-5.57,5.57c-3.08,0-5.57-2.5-5.57-5.57
		C194.08,87.81,196.57,85.32,199.65,85.32"/>
</g>
</svg>
