<?xml version="1.0" encoding="utf-8"?>
<!-- Generator: Adobe Illustrator 28.1.0, SVG Export Plug-In . SVG Version: 6.00 Build 0)  -->
<svg version="1.1" id="Layer_1" xmlns="http://www.w3.org/2000/svg" xmlns:xlink="http://www.w3.org/1999/xlink" x="0px" y="0px"
	 viewBox="0 0 280.53 237.06" style="enable-background:new 0 0 280.53 237.06;" xml:space="preserve">
<style type="text/css">
	.st0{fill:#EFBFE2;}
	.st1{fill:#F7BE8B;}
	.st2{fill:#CE4D4D;}
	.st3{fill:#FFFAFF;}
	.st4{fill:#A5A5A5;}
	.st5{fill:#FFFAFF;stroke:#000000;stroke-width:2.5;stroke-miterlimit:10;}
	.st6{fill:#77D895;}
	.st7{fill:#272727;}
	.st8{fill:#BFE090;}
	.st9{fill:#FFFFFF;}
	.st10{fill:#CDE3EE;}
	.st11{fill:#FF8888;}
	.st12{fill:#EFAFBB;}
	.st13{fill:#E88858;}
	.st14{fill:#C5C2F9;}
	.st15{fill:#75B8EF;}
</style>
<g>
	<g>
		<g>
			<g id="XMLID_00000103255840852439645590000008721847335248726659_">
				<path class="st10" d="M70.52,34.36c-31.05,16.13-54.14,46.8-61.07,81.09c-2.86,14.17-3.04,29.13,1.48,42.86
					c5.13,15.55,16.01,28.69,28.69,39.04c33.07,26.97,77.91,35.92,120.52,33.57c33.87-1.87,69.24-11.42,92.44-36.16
					c23.2-24.74,29.02-67.55,5.59-92.07c-9.34-9.77-22.02-15.69-32-24.81c-24.05-21.96-33.15-62.31-64.64-70.63
					c-9.65-2.55-19.88-1.39-29.7,0.41C105.24,12.52,84.14,27.28,70.52,34.36"/>
			</g>
			<g id="XMLID_00000129207389442324862320000008229827727628572036_">
				<path class="st10" d="M250.48,64.21c5.69-2.12,10.32-6.91,12.24-12.66c0.79-2.38,1.14-4.95,0.66-7.41
					c-0.55-2.79-2.15-5.28-4.11-7.33c-5.12-5.35-12.65-7.85-20.04-8.35c-5.87-0.4-12.17,0.49-16.69,4.26
					c-4.52,3.77-6.44,11.02-2.92,15.74c1.4,1.88,3.46,3.17,4.98,4.95c3.67,4.29,4.38,11.44,9.63,13.54
					c1.61,0.64,3.39,0.66,5.12,0.56C244.04,67.23,247.99,65.14,250.48,64.21"/>
			</g>
		</g>
	</g>
	<g>
		<path class="st3" d="M196.71,88.34l-21.78,61.75c-4.78,13.53-18.59,20.15-32.15,15.41l-7.34-2.59l-7.91,22.44l-15.77-5.56
			l7.91-22.43c-0.05-0.02-0.1-0.05-0.14-0.06c-0.65-0.24-1.32-0.48-1.98-0.71l-2.4-0.83c-1.83-0.64-3.79-1.36-5.66-2.21
			c-10.81-4.87-16.58-17.61-13.14-29.01c0.81-2.66,1.77-5.31,2.69-7.87c0.36-0.97,0.7-1.95,1.04-2.92
			c5.31-15.06,18.66-52.92,18.66-52.92c4.23-11.99,15.48-18.6,28-16.47c1.19,0.2,2.45,0.54,3.83,1.03
			c5.98,2.08,11.94,4.18,17.9,6.29c4.31,1.52,8.61,3.04,12.92,4.57C194.88,61.01,201.47,74.81,196.71,88.34z"/>
		<g>
			<path class="st7" d="M181.39,56.24c-4.31-1.53-8.61-3.05-12.92-4.57c-5.96-2.1-11.92-4.2-17.9-6.29
				c-1.38-0.49-2.64-0.83-3.83-1.03c-12.52-2.13-23.77,4.48-28,16.47c0,0-13.35,37.85-18.66,52.92c-0.34,0.98-0.69,1.95-1.04,2.92
				c-0.92,2.56-1.88,5.21-2.69,7.87c-3.44,11.39,2.32,24.14,13.14,29.01c1.87,0.85,3.84,1.57,5.66,2.21l2.4,0.83
				c0.66,0.23,1.33,0.47,1.98,0.71c0.05,0.02,0.1,0.05,0.14,0.06l-11.13,31.57c-1.11,3.17,0.32,6.35,3.32,7.41
				c0.51,0.18,1.06,0.3,1.62,0.34l0.84,0.07l0.4-0.94c0.08-0.19,0.16-0.39,0.22-0.59c0.07-0.19,0.11-0.41,0.14-0.6l0.19-1.08
				l-0.86-0.35c-2.61-1.11-2.71-1.33-1.8-3.93c0.85-2.42,1.71-4.84,2.57-7.25l0.03-0.08l8.3,2.93c-0.21,0.6-0.41,1.21-0.63,1.81
				c-0.85,2.43-1.65,4.73-2.52,7.05c-0.29,0.78-1.2,0.95-1.91,0.79c-0.34-0.08-0.67-0.17-0.99-0.27l-1.53-0.44l-1.18,3.36l0.94,0.45
				c0.34,0.16,0.66,0.3,0.99,0.41c3.56,1.26,6.48-0.22,7.79-3.93l10.99-31.17l7.34,2.59c13.55,4.74,27.36-1.89,32.15-15.41
				l21.78-61.75C201.47,74.81,194.88,61.01,181.39,56.24z M136.81,159.12l1.8-5.11l4.42,1.56l1.45-3.57l-24.63-8.69l-1.26,3.58
				l4.18,1.47l-1.84,5.22l-0.45-0.16c-0.76-0.27-1.53-0.53-2.29-0.79c-0.76-0.26-1.52-0.51-2.27-0.77c-1.69-0.6-3.67-1.33-5.59-2.27
				c-8.27-4.01-12.79-13.92-10.51-23.03c0.27-1.06,0.58-2.09,0.92-3.07l0.82-2.34c6.96-19.73,13.9-39.45,20.87-59.17
				c3.31-9.36,12.09-14.99,21.83-14.03c1.63,0.17,3.35,0.56,5.14,1.17c5.46,1.9,10.92,3.81,16.37,5.73c4.81,1.7,9.62,3.41,14.43,5.1
				c11.31,4.01,16.86,15.56,12.9,26.85c-3.4,9.7-6.82,19.41-10.25,29.1c0,0-9.96,28.25-11.59,32.86
				c-3.77,10.65-13.59,16.2-24.44,13.82c-1.22-0.26-2.52-0.64-4.06-1.19c-1.15-0.4-2.3-0.86-3.45-1.3
				C138.49,159.76,137.66,159.43,136.81,159.12z M134.69,152.97l-9.88,28.01l-8.24-2.91l9.88-28.01L134.69,152.97z"/>
			<path class="st7" d="M181.01,57.33c-10.27-3.63-20.54-7.26-30.81-10.85c-1.19-0.42-2.42-0.78-3.66-0.98
				c-11.91-2.03-22.69,4.33-26.7,15.71c-6.23,17.63-12.45,35.27-18.67,52.93c-1.26,3.56-2.62,7.1-3.72,10.73
				c-3.27,10.79,2.23,22.98,12.51,27.61c3.24,1.46,6.65,2.5,9.98,3.74c0.38,0.15,0.76,0.31,1.19,0.49l-0.48,1.35
				c-2.6,7.38-5.2,14.74-7.79,22.13l-3.22,9.14c-1.09,3.1,0.72,5.95,3.94,6.21c0.09-0.21,0.19-0.42,0.25-0.65
				c0.06-0.21,0.09-0.43,0.12-0.63c-3.19-1.35-3.56-2.2-2.44-5.38l2.56-7.26c0.1-0.3,0.23-0.59,0.36-0.87
				c0.03-0.09,0.08-0.18,0.11-0.27l10.43,3.68l-0.1,0.27c-1.16,3.28-2.23,6.51-3.45,9.7c-0.48,1.27-1.88,1.83-3.25,1.52
				c-0.53-0.12-1.03-0.29-1.53-0.44l-0.48,1.35c3.44,1.62,5.98,0.59,7.19-2.85l3.08-8.73c2.6-7.37,5.19-14.72,7.78-22.09l0.51-1.44
				l8.44,2.98c12.92,4.52,26.11-1.81,30.66-14.71l21.78-61.75C200.13,75.12,193.82,61.86,181.01,57.33z M125.53,182.48l-10.43-3.68
				l10.66-30.21l10.43,3.68L125.53,182.48z M179.4,129.16c-2.35,6.66-4.68,13.32-7.05,19.98c-3.91,11.05-14.33,17.08-25.77,14.56
				c-3.82-0.83-7.44-2.53-11.24-3.88l2.57-7.29l4.46,1.57c0.22-0.51,0.38-0.93,0.58-1.43l-22.39-7.9l-0.49,1.4l4.18,1.47l-2.57,7.29
				c-0.1,0.03-0.18,0.08-0.24,0.06c-3.88-1.43-7.9-2.57-11.61-4.36c-8.79-4.27-13.51-14.89-11.13-24.36
				c0.27-1.08,0.57-2.13,0.94-3.18c7.22-20.5,14.45-41.01,21.69-61.51c3.49-9.85,12.75-15.82,23.03-14.8
				c1.83,0.17,3.67,0.63,5.4,1.23c10.29,3.57,20.56,7.21,30.81,10.84c11.82,4.19,17.76,16.49,13.61,28.32
				C189.3,101.19,184.33,115.17,179.4,129.16z"/>
			<path class="st7" d="M181.76,72.35l-19.24-6.78c-7.4-2.61-14.79-5.22-22.18-7.81c-4.79-1.69-9.15,0.4-10.85,5.19
				c-2.71,7.62-5.4,15.25-8.07,22.89c-1.73,4.94,0.38,9.28,5.37,11.04l41.3,14.57c4.68,1.64,9.1-0.48,10.77-5.16
				c2.72-7.67,5.42-15.33,8.11-23.01C188.66,78.45,186.57,74.06,181.76,72.35z M169.4,107.75c-7.09-2.49-14.18-4.99-21.26-7.49
				c-6.79-2.39-13.58-4.79-20.36-7.19c-2.61-0.92-3.66-3.12-2.76-5.72c2.72-7.74,5.44-15.47,8.2-23.21c0.91-2.59,3.11-3.61,5.74-2.7
				c2.92,1.02,5.83,2.04,8.74,3.07l24.32,8.58c2.85,1,5.7,2.01,8.55,3.03c2.63,0.93,3.67,3.07,2.74,5.72
				c-2.62,7.5-5.37,15.31-8.18,23.2C174.21,107.67,172.06,108.68,169.4,107.75z"/>
			<path class="st7" d="M181.37,73.45c-13.81-4.88-27.61-9.75-41.42-14.61c-4.14-1.46-7.9,0.33-9.38,4.49
				c-2.71,7.62-5.4,15.25-8.07,22.89c-1.53,4.39,0.25,8.01,4.66,9.57l20.43,7.21c6.96,2.45,13.91,4.92,20.87,7.36
				c4.09,1.43,7.84-0.36,9.29-4.46c2.72-7.67,5.42-15.33,8.11-23.01C187.36,78.65,185.61,74.94,181.37,73.45z M176.23,105.43
				c-1.15,3.22-3.98,4.54-7.21,3.4c-13.87-4.88-27.74-9.77-41.62-14.68c-3.21-1.13-4.58-3.99-3.46-7.19
				c2.71-7.73,5.44-15.47,8.19-23.21c1.14-3.19,4-4.54,7.22-3.4c6.92,2.42,13.84,4.87,20.75,7.31c6.96,2.45,13.92,4.9,20.87,7.37
				c3.21,1.13,4.58,3.94,3.45,7.18C181.71,89.96,178.98,97.7,176.23,105.43z"/>
			<path class="st7" d="M128.98,123.4c-0.6-0.22-1.19-0.43-1.79-0.64l-4.57-1.6l-2.33-0.84c-0.27-0.1-0.54-0.19-0.83-0.28
				c-2.88-0.95-5.21,0.16-6.24,2.99c-0.67,1.82-1.31,3.61-1.9,5.38c-0.86,2.57,0.33,5,2.86,5.92c1.56,0.56,3.12,1.11,4.67,1.66
				c1.71,0.6,3.44,1.21,5.16,1.81c2.63,0.9,5.05-0.25,6.02-2.85c0.54-1.49,1.07-2.99,1.59-4.49l0.27-0.77
				C132.88,126.86,131.76,124.45,128.98,123.4z M120.28,132.32l-2.78-0.98c-0.62-0.22-1.24-0.44-1.85-0.66
				c-0.74-0.26-0.8-0.4-0.55-1.12c0.6-1.78,1.23-3.56,1.88-5.32c0.27-0.72,0.55-0.69,0.96-0.54c1.5,0.52,3.02,1.04,4.51,1.57
				c1.79,0.63,3.59,1.28,5.38,1.94c0.45,0.16,0.61,0.33,0.42,0.91c-0.6,1.81-1.25,3.67-1.95,5.54c-0.19,0.54-0.35,0.66-0.99,0.44
				c-0.65-0.22-1.31-0.44-1.96-0.67L120.28,132.32z"/>
			<path class="st7" d="M128.57,124.5c-1.54-0.58-3.12-1.11-4.67-1.66l-2.35-0.83c-0.82-0.29-1.63-0.59-2.45-0.86
				c-2.26-0.75-3.98,0.06-4.79,2.29c-0.65,1.77-1.29,3.55-1.89,5.35c-0.65,1.98,0.21,3.76,2.16,4.48c3.26,1.18,6.53,2.32,9.81,3.45
				c2.05,0.71,3.81-0.14,4.55-2.16c0.64-1.74,1.24-3.49,1.86-5.23C131.58,127.05,130.79,125.32,128.57,124.5z M127.4,134.04
				c-0.44,1.17-1.25,1.55-2.45,1.15c-1.64-0.55-3.27-1.15-4.9-1.73c-1.6-0.56-3.21-1.11-4.8-1.69c-1.31-0.49-1.68-1.27-1.24-2.59
				c0.62-1.79,1.25-3.57,1.9-5.34c0.42-1.17,1.27-1.63,2.42-1.24c3.31,1.13,6.63,2.3,9.92,3.5c1.1,0.4,1.49,1.27,1.13,2.38
				C128.73,130.34,128.08,132.19,127.4,134.04z"/>
			<path class="st7" d="M162.04,140.07c0.86-2.63-0.26-5.03-2.78-5.97c-1.68-0.62-3.37-1.23-5.06-1.82
				c-1.67-0.59-3.33-1.16-5.01-1.72c-2.49-0.83-4.87,0.35-5.8,2.85c-0.7,1.92-1.37,3.81-1.98,5.61c-0.86,2.59,0.28,4.97,2.82,5.92
				c0.64,0.22,1.28,0.46,1.91,0.69l2.65,0.92l3.32,1.18c0.61,0.22,1.23,0.43,1.84,0.64c2.79,0.96,5.16-0.16,6.18-2.91
				C160.88,143.46,161.5,141.7,162.04,140.07z M155.3,144.66c-0.64-0.21-1.28-0.44-1.91-0.66l-7.56-2.67
				c-0.86-0.32-0.96-0.42-0.63-1.39c0.57-1.68,1.15-3.35,1.76-4.99c0.3-0.8,0.53-0.85,1.23-0.6c1.47,0.51,2.93,1.02,4.4,1.54
				c1.69,0.6,3.38,1.19,5.07,1.8c0.81,0.28,0.86,0.51,0.62,1.2c-0.59,1.76-1.21,3.49-1.84,5.22
				C156.18,144.81,155.99,144.9,155.3,144.66z"/>
			<path class="st7" d="M160.93,139.7c0.66-2.03-0.11-3.78-2.07-4.51c-3.33-1.24-6.66-2.43-10.03-3.54
				c-1.94-0.65-3.65,0.26-4.36,2.16c-0.68,1.84-1.33,3.7-1.97,5.57c-0.66,1.99,0.18,3.74,2.14,4.46c1.58,0.59,3.19,1.14,4.79,1.7
				c1.63,0.58,3.26,1.16,4.9,1.73c2.18,0.74,3.93-0.06,4.73-2.23C159.71,143.28,160.35,141.5,160.93,139.7z M157.52,144.51
				c-0.47,1.29-1.3,1.69-2.6,1.25c-1.61-0.54-3.2-1.13-4.8-1.69c-1.55-0.55-3.13-1.09-4.69-1.65c-1.48-0.54-1.86-1.32-1.33-2.84
				c0.57-1.69,1.16-3.36,1.77-5.02c0.5-1.35,1.35-1.77,2.69-1.31c3.17,1.11,6.33,2.22,9.49,3.36c1.36,0.48,1.78,1.32,1.32,2.66
				C158.78,141.02,158.16,142.77,157.52,144.51z"/>
			<path class="st7" d="M160.69,88.81c0.01-0.11,0.04-0.25,0.07-0.41c0.08-0.51,0.19-1.22,0.06-1.94c-0.55-3.07-1.21-6.27-1.94-9.53
				c-0.18-0.83-0.69-1.45-1.39-1.7c-0.71-0.25-1.52-0.08-2.19,0.46l-1.42,1.13c-2.08,1.64-4.23,3.35-6.17,5.23
				c-2.15,2.1-2.52,5.03-1,8.06c0.92,1.83,2.33,3.13,4.05,3.74c0.95,0.34,2.02,0.47,3.14,0.4c3.09-0.2,5.35-1.9,6.7-5.08l0.08-0.18
				L160.69,88.81z M155.02,89.92c-0.94,0.46-1.8,0.55-2.67,0.25c-0.4-0.14-0.8-0.37-1.19-0.69c-1.18-0.95-1.56-2.16-1.18-3.7
				c0.09-0.38,0.33-0.8,0.6-1.04c1.52-1.42,3.07-2.8,4.62-4.18l0.58-0.51c0.07,0.36,0.13,0.69,0.19,1.05
				c0.34,1.87,0.69,3.8,0.93,5.7C157.06,88.17,156.42,89.22,155.02,89.92z"/>
			<path class="st7" d="M159.68,86.65c-0.57-3.16-1.22-6.32-1.92-9.47c-0.21-0.93-1-1.19-1.74-0.59c-2.54,2.04-5.16,4.03-7.49,6.29
				c-1.94,1.88-1.96,4.35-0.78,6.71c1.23,2.45,3.34,3.67,6.08,3.5c2.68-0.17,4.54-1.62,5.71-4.37
				C159.57,88.21,159.81,87.4,159.68,86.65z M155.53,90.96c-1.8,0.9-3.54,0.68-5.09-0.57c-1.56-1.25-2.06-2.96-1.58-4.88
				c0.15-0.57,0.49-1.19,0.92-1.6c2.07-1.92,4.19-3.78,6.3-5.67c0.2,0.07,0.4,0.13,0.6,0.19c0.46,2.75,1.03,5.48,1.37,8.24
				C158.28,88.62,157.29,90.09,155.53,90.96z"/>
		</g>
	</g>
</g>
</svg>
