<?xml version="1.0" encoding="utf-8"?>
<!-- Generator: Adobe Illustrator 28.1.0, SVG Export Plug-In . SVG Version: 6.00 Build 0)  -->
<svg version="1.1" id="Layer_1" xmlns="http://www.w3.org/2000/svg" xmlns:xlink="http://www.w3.org/1999/xlink" x="0px" y="0px"
	 viewBox="0 0 280.53 237.06" style="enable-background:new 0 0 280.53 237.06;" xml:space="preserve">
<style type="text/css">
	.st0{fill:#EFBFE2;}
	.st1{fill:#F7BE8B;}
	.st2{fill:#CE4D4D;}
	.st3{fill:#FFFAFF;}
	.st4{fill:#A5A5A5;}
	.st5{fill:#FFFAFF;stroke:#000000;stroke-width:2.5;stroke-miterlimit:10;}
	.st6{fill:#77D895;}
	.st7{fill:#272727;}
	.st8{fill:#BFE090;}
	.st9{fill:#FFFFFF;}
	.st10{fill:#CDE3EE;}
	.st11{fill:#FF8888;}
	.st12{fill:#EFAFBB;}
	.st13{fill:#E88858;}
	.st14{fill:#C5C2F9;}
	.st15{fill:#75B8EF;}
</style>
<g>
	<g>
		<g id="XMLID_00000121964485905835803520000007910683947778254993_">
			<path class="st8" d="M70.52,34.36c-31.05,16.13-54.14,46.8-61.07,81.09c-2.86,14.17-3.04,29.13,1.48,42.86
				c5.13,15.55,16.01,28.69,28.69,39.04c33.07,26.97,77.91,35.92,120.52,33.57c33.87-1.87,69.24-11.42,92.44-36.16
				c23.2-24.74,29.02-67.55,5.59-92.07c-9.34-9.77-22.02-15.69-32-24.81c-24.05-21.96-33.15-62.31-64.64-70.63
				c-9.65-2.55-19.88-1.39-29.7,0.41C105.24,12.52,84.14,27.28,70.52,34.36"/>
		</g>
		<g id="XMLID_00000114049323004099815090000011006033208734862520_">
			<path class="st8" d="M250.48,64.21c5.69-2.12,10.32-6.91,12.24-12.66c0.79-2.38,1.14-4.95,0.66-7.41
				c-0.55-2.79-2.15-5.28-4.11-7.33c-5.12-5.35-12.65-7.85-20.04-8.35c-5.87-0.4-12.17,0.49-16.69,4.26
				c-4.52,3.77-6.44,11.02-2.92,15.74c1.4,1.88,3.46,3.17,4.98,4.95c3.67,4.29,4.38,11.44,9.63,13.54c1.61,0.64,3.39,0.66,5.12,0.56
				C244.04,67.23,247.99,65.14,250.48,64.21"/>
		</g>
	</g>
</g>
<g>
	<path class="st7" d="M203.13,149.77c-0.61-0.72-0.59-1.13,0.02-1.79c1.71-1.83,2.73-4.03,3.14-6.49c1.67-9.96-1.8-18.13-8.99-24.87
		c-6.08-5.7-13.42-9.26-21.27-11.82c-0.85-0.27-1.46-0.35-0.65-1.45c7.6-10.25,8.93-21.48,5.07-33.45
		c-0.47-1.47-0.32-2.05,1.26-2.61c9.34-3.29,12.77-15.61,6.55-23.29c-6.39-7.88-17.15-8.01-23.85-0.23
		c-0.53,0.61-0.85,0.66-1.47,0.18c-1.43-1.12-2.86-2.24-4.39-3.19c-8.83-5.55-18.29-7.58-28.53-4.93
		c-5.67,1.47-10.68,4.19-15.19,7.87c-0.86,0.69-1.25,0.75-2.04-0.19c-4.79-5.77-12.6-7.19-19.22-3.3c-5.57,3.26-8.1,8.36-7.38,14.8
		c0.65,5.89,3.98,9.98,9.42,12.29c1.9,0.81,1.92,0.74,1.28,2.78c-3.71,11.9-2.39,23.03,5.1,33.18c0.75,1.01,0.49,1.27-0.57,1.61
		c-6.3,1.99-12.24,4.8-17.55,8.77c-6.96,5.17-11.9,11.69-12.85,20.58c-0.54,4.94-0.12,9.78,3.4,13.75c0.69,0.75,0.4,1.16-0.12,1.8
		c-3.58,4.25-4.85,9.08-3.38,14.49c1.65,6.06,3.33,12.09,5.05,18.11c1.26,4.35,3.93,7.62,7.97,9.65c1.6,0.79,3.33,1.3,4.99,1.93
		h5.29c2.22-0.42,4.48-0.42,6.67-1.03c6.87-1.94,13.76-3.84,20.61-5.86c1.75-0.52,3.41-0.59,5.2-0.22
		c8.05,1.7,16.12,1.66,24.17-0.05c1.62-0.33,3.14-0.24,4.73,0.18c9.09,2.38,17.9,5.78,27.28,6.99h5.29
		c0.33-0.53,0.93-0.38,1.38-0.49c6.21-1.57,10.27-5.36,12.01-11.56c1.6-5.67,3.13-11.37,4.79-17.04
		C208,159.21,206.88,154.2,203.13,149.77z M198.43,126.01c2.76,4.43,3.73,9.28,2.84,14.46c-0.16,0.92-0.49,1.79-0.94,2.6
		c-1.37,2.48-1.77,2.63-4.37,1.66c-1.56-0.58-3.16-1.02-4.82-1.11c-1-0.04-1.32-0.36-1.34-1.36c-0.04-7.97-2.25-15.41-5.65-22.56
		c-1.25-2.66-2.76-5.19-4.2-7.77C187.31,115.09,194.06,119,198.43,126.01z M168.41,46.96c2.65-3.3,7.1-4.58,11.2-3.16
		c3.89,1.34,6.64,5.2,6.68,9.39c0.04,4.26-2.97,8.32-7.07,9.58c-0.93,0.29-1.47,0.23-1.94-0.76c-2.31-4.72-5.25-9.04-8.87-12.84
		C167.56,48.27,167.81,47.73,168.41,46.96z M98.27,62.79c-4.08-1.25-7.12-5.26-7.11-9.54c0-4.23,2.82-8.16,6.76-9.48
		c4.11-1.37,8.56-0.04,11.17,3.27c0.61,0.78,0.7,1.28-0.02,2.06c-3.6,3.83-6.55,8.13-8.88,12.85
		C99.74,62.88,99.27,63.09,98.27,62.79z M100.99,74.79c2.88-12.09,9.53-21.72,19.58-28.96c11.01-7.93,25.13-7.96,36.19-0.08
		c9.78,6.96,16.29,16.26,19.41,27.86c3.53,13.12-1.16,26.01-12.27,33.98c-6.43,4.61-13.6,7.12-21.45,7.88
		c-1.08,0.11-1.2-0.32-1.17-1.2c0.02-4.62,0.01-9.23,0.01-13.84c0-4.57,0.04-9.13-0.04-13.7c-0.01-1.14,0.38-1.53,1.45-1.68
		c1.92-0.29,3.71-0.98,5.22-2.23c2.83-2.35,2.76-5.82-0.16-8.06c-1.82-1.42-3.95-2.06-6.18-2.33c-3.6-0.45-7.16-0.26-10.46,1.43
		c-2.02,1.04-3.62,2.49-3.62,5.01c0,2.43,1.56,3.84,3.5,4.91c1.23,0.69,2.56,1.13,3.96,1.32c0.82,0.1,1.23,0.41,1.23,1.37
		c-0.03,9.29-0.02,18.55-0.01,27.84c0,0.76-0.01,1.28-1.05,1.17c-11.19-1.13-20.82-5.33-28.09-14.16
		C100.61,93.53,98.65,84.57,100.99,74.79z M132.9,79.01c2.14-2.03,8.62-1.91,11.02-0.59c0.71,0.38,0.44,0.71-0.09,0.91
		C140.21,80.73,136.62,80.69,132.9,79.01z M83.49,120.65c4.04-3.86,8.79-6.62,14.2-8.87c-1.09,1.9-2.09,3.52-2.99,5.19
		c-3.68,6.7-6.08,13.82-6.93,21.43c-0.14,1.34-0.16,2.69-0.16,4.04c-0.01,0.76-0.21,1.1-1.04,1.15c-2.24,0.14-4.4,0.69-6.41,1.71
		c-0.61,0.31-1.01,0.18-1.48-0.3c-1.47-1.5-2.25-3.34-2.49-5.39C75.31,132.01,78.09,125.79,83.49,120.65z M97.25,187.61
		c-1.72,0.72-3.52,1.19-5.3,1.1c-5.6,0.01-9.64-3-11.12-8.24c-1.56-5.53-3.04-11.06-4.68-16.56c-1.32-4.43-0.56-8.34,2.82-11.54
		c3.72-3.52,8.17-4.53,13.06-2.99c3.18,1,5.61,3.03,6.59,6.29c1.93,6.5,3.9,12.99,5.48,19.56
		C105.33,180.37,102.29,185.49,97.25,187.61z M107.59,184.83c1.06-1.99,1.48-3.68,1.91-5.46c1.96,1.04,3.82,2.01,6.05,3.18
		C112.85,183.34,110.46,184.01,107.59,184.83z M137.06,182.15c-8.72-0.09-18.39-2.8-27.09-8.73c-0.77-0.52-1.24-1.1-1.49-2.03
		c-1.48-5.44-3.04-10.87-4.57-16.3c-1.45-5.16-4.77-8.64-9.76-10.47c-1.28-0.46-1.48-1.1-1.45-2.24c0.26-7.87,2.45-15.19,6.08-22.13
		c1.96-3.78,4.32-7.3,7-10.61c0.65-0.8,1.01-1,1.9-0.24c10.44,8.97,22.67,12.38,36.22,11.08c9.63-0.92,18.25-4.46,25.6-10.87
		c1.05-0.93,1.5-0.79,2.34,0.25c5.61,7.01,9.67,14.81,11.73,23.58c0.74,3.08,1,6.22,1.15,9.38c0.05,0.89-0.22,1.36-1.14,1.69
		c-5.25,1.85-8.66,5.46-10.15,10.87c-1.47,5.38-3.02,10.76-4.5,16.15c-0.22,0.81-0.63,1.34-1.32,1.8
		C159.18,179.1,149.4,182.1,137.06,182.15z M169.38,184.7c-2.39-0.68-4.77-1.36-7.5-2.13c2.18-1.15,4.07-2.14,6.06-3.21
		c0.47,1.76,0.8,3.49,1.73,5.02C169.57,184.49,169.47,184.59,169.38,184.7z M201.37,163.51c-1.59,5.62-3.14,11.24-4.73,16.86
		c-1.51,5.37-5.52,8.35-11.09,8.33c-6.7-0.02-12.07-4.74-12.49-10.95c-0.09-1.36,0.22-2.68,0.58-3.97
		c1.54-5.52,3.08-11.04,4.63-16.57c1.59-5.65,5.83-8.7,11.78-8.48c5.69,0.23,10.72,4.3,11.73,9.58
		C202.12,160.04,201.87,161.79,201.37,163.51z"/>
	<path class="st9" d="M201.27,140.46c-0.16,0.92-0.49,1.79-0.94,2.6c-1.37,2.48-1.77,2.63-4.37,1.66c-1.56-0.58-3.16-1.02-4.82-1.11
		c-1-0.04-1.32-0.36-1.34-1.36c-0.04-7.97-2.25-15.41-5.65-22.56c-1.25-2.66-2.76-5.19-4.2-7.77c7.37,3.17,14.12,7.08,18.48,14.08
		C201.19,130.44,202.16,135.28,201.27,140.46z"/>
	<path class="st9" d="M201.37,163.51c-1.59,5.62-3.14,11.24-4.73,16.86c-1.51,5.37-5.52,8.35-11.09,8.33
		c-6.7-0.02-12.07-4.74-12.49-10.95c-0.09-1.36,0.22-2.68,0.58-3.97c1.54-5.52,3.08-11.04,4.63-16.57c1.59-5.65,5.83-8.7,11.78-8.48
		c5.69,0.23,10.72,4.3,11.73,9.58C202.12,160.04,201.87,161.79,201.37,163.51z"/>
	<path class="st9" d="M97.25,187.61c-1.72,0.72-3.52,1.19-5.3,1.1c-5.6,0.01-9.64-3-11.12-8.24c-1.56-5.53-3.04-11.06-4.68-16.56
		c-1.32-4.43-0.56-8.34,2.82-11.54c3.72-3.52,8.17-4.53,13.06-2.99c3.18,1,5.61,3.03,6.59,6.29c1.93,6.5,3.9,12.99,5.48,19.56
		C105.33,180.37,102.29,185.49,97.25,187.61z"/>
	<path class="st9" d="M97.7,111.78c-1.09,1.9-2.09,3.52-2.99,5.19c-3.68,6.7-6.08,13.82-6.93,21.43c-0.14,1.34-0.16,2.69-0.16,4.04
		c-0.01,0.76-0.21,1.1-1.04,1.15c-2.24,0.14-4.4,0.69-6.41,1.71c-0.61,0.31-1.01,0.18-1.48-0.3c-1.47-1.5-2.25-3.34-2.49-5.39
		c-0.89-7.61,1.9-13.83,7.3-18.97C87.53,116.78,92.29,114.03,97.7,111.78z"/>
	<path class="st9" d="M184.73,142.82c0.05,0.89-0.22,1.36-1.14,1.69c-5.25,1.85-8.66,5.46-10.15,10.87
		c-1.47,5.38-3.02,10.76-4.5,16.15c-0.22,0.81-0.63,1.34-1.32,1.8c-8.44,5.77-18.22,8.77-30.56,8.83
		c-8.72-0.09-18.39-2.8-27.09-8.73c-0.77-0.52-1.24-1.1-1.49-2.03c-1.48-5.44-3.04-10.87-4.57-16.3c-1.45-5.16-4.77-8.64-9.76-10.47
		c-1.28-0.46-1.48-1.1-1.45-2.24c0.26-7.87,2.45-15.19,6.08-22.13c1.96-3.78,4.32-7.3,7-10.61c0.65-0.8,1.01-1,1.9-0.24
		c10.44,8.97,22.67,12.38,36.22,11.08c9.63-0.92,18.25-4.46,25.6-10.87c1.05-0.93,1.5-0.79,2.34,0.25
		c5.61,7.01,9.67,14.81,11.73,23.58C184.31,136.52,184.58,139.66,184.73,142.82z"/>
	<path class="st9" d="M143.83,79.33c-3.62,1.39-7.21,1.36-10.93-0.32c2.14-2.03,8.62-1.91,11.02-0.59
		C144.63,78.81,144.36,79.13,143.83,79.33z"/>
	<path class="st9" d="M186.29,53.19c0.04,4.26-2.97,8.32-7.07,9.58c-0.93,0.29-1.47,0.23-1.94-0.76c-2.31-4.72-5.25-9.04-8.87-12.84
		c-0.85-0.9-0.6-1.44,0-2.21c2.65-3.3,7.1-4.58,11.2-3.16C183.49,45.14,186.25,49,186.29,53.19z"/>
	<path class="st9" d="M109.07,49.1c-3.6,3.83-6.55,8.13-8.88,12.85c-0.45,0.92-0.92,1.13-1.92,0.83c-4.08-1.25-7.12-5.26-7.11-9.54
		c0-4.23,2.82-8.16,6.76-9.48c4.11-1.37,8.56-0.04,11.17,3.27C109.71,47.82,109.79,48.32,109.07,49.1z"/>
	<path class="st9" d="M176.17,73.61c-3.12-11.6-9.63-20.9-19.41-27.86c-11.06-7.88-25.18-7.85-36.19,0.08
		c-10.05,7.23-16.71,16.87-19.58,28.96c-2.34,9.78-0.38,18.74,6.04,26.54c7.27,8.83,16.9,13.03,28.09,14.16
		c1.04,0.11,1.05-0.42,1.05-1.17c-0.01-9.29-0.02-18.55,0.01-27.84c0-0.97-0.41-1.27-1.23-1.37c-1.41-0.19-2.73-0.63-3.96-1.32
		c-1.94-1.06-3.5-2.48-3.5-4.91c0-2.51,1.6-3.96,3.62-5.01c3.3-1.69,6.86-1.88,10.46-1.43c2.23,0.26,4.36,0.91,6.18,2.33
		c2.92,2.24,3,5.71,0.16,8.06c-1.51,1.25-3.3,1.94-5.22,2.23c-1.06,0.15-1.46,0.54-1.45,1.68c0.09,4.57,0.04,9.13,0.04,13.7
		c0,4.61,0.01,9.22-0.01,13.84c-0.02,0.88,0.1,1.31,1.17,1.2c7.85-0.76,15.02-3.27,21.45-7.88
		C175.01,99.63,179.7,86.73,176.17,73.61z M117.24,68.79c-1.99,0-3.6-1.6-3.6-3.59s1.61-3.59,3.6-3.59c1.98,0,3.59,1.6,3.59,3.59
		S119.21,68.79,117.24,68.79z M158.89,68.79c-1.99,0-3.59-1.6-3.59-3.59s1.6-3.59,3.59-3.59s3.59,1.6,3.59,3.59
		S160.88,68.79,158.89,68.79z"/>
	<path class="st7" d="M120.83,65.21c0,1.99-1.61,3.59-3.59,3.59c-1.99,0-3.6-1.6-3.6-3.59s1.61-3.59,3.6-3.59
		C119.21,61.62,120.83,63.22,120.83,65.21z"/>
	<circle class="st7" cx="158.89" cy="65.21" r="3.59"/>
</g>
</svg>
