<?xml version="1.0" encoding="utf-8"?>
<!-- Generator: Adobe Illustrator 28.1.0, SVG Export Plug-In . SVG Version: 6.00 Build 0)  -->
<svg version="1.1" id="Layer_1" xmlns="http://www.w3.org/2000/svg" xmlns:xlink="http://www.w3.org/1999/xlink" x="0px" y="0px"
	 viewBox="0 0 280.53 237.06" style="enable-background:new 0 0 280.53 237.06;" xml:space="preserve">
<style type="text/css">
	.st0{fill:#EFBFE2;}
	.st1{fill:#F7BE8B;}
	.st2{fill:#CE4D4D;}
	.st3{fill:#FFFAFF;}
	.st4{fill:#A5A5A5;}
	.st5{fill:#FFFAFF;stroke:#000000;stroke-width:2.5;stroke-miterlimit:10;}
	.st6{fill:#77D895;}
	.st7{fill:#272727;}
	.st8{fill:#BFE090;}
	.st9{fill:#FFFFFF;}
	.st10{fill:#CDE3EE;}
	.st11{fill:#FF8888;}
	.st12{fill:#EFAFBB;}
	.st13{fill:#E88858;}
	.st14{fill:#C5C2F9;}
	.st15{fill:#75B8EF;}
</style>
<g>
	<path id="XMLID_00000111881765806935234060000005697680721622835871_" class="st0" d="M73.18,36.23
		c-31.05,16.13-54.14,46.8-61.07,81.09c-2.86,14.17-3.04,29.13,1.48,42.86c5.13,15.55,16.01,28.69,28.69,39.04
		c33.07,26.97,77.91,35.92,120.52,33.57c33.87-1.87,69.24-11.42,92.44-36.16c23.2-24.74,29.02-67.55,5.59-92.07
		c-9.34-9.77-22.02-15.69-32-24.81c-24.05-21.96-33.15-62.31-64.64-70.63c-9.65-2.55-19.88-1.39-29.7,0.41
		C107.89,14.39,86.8,29.15,73.18,36.23"/>
	<path id="XMLID_00000064342346398511774240000018230791385597993123_" class="st0" d="M253.14,66.08
		c5.69-2.12,10.32-6.91,12.24-12.66c0.79-2.38,1.14-4.95,0.66-7.41c-0.55-2.79-2.15-5.28-4.11-7.33
		c-5.12-5.35-12.65-7.85-20.04-8.35c-5.87-0.4-12.17,0.49-16.69,4.26c-4.52,3.77-6.44,11.02-2.92,15.74
		c1.4,1.88,3.46,3.17,4.98,4.95c3.67,4.29,4.38,11.44,9.63,13.54c1.61,0.64,3.39,0.66,5.12,0.56
		C246.69,69.11,250.64,67.01,253.14,66.08"/>
</g>
<path class="st5" d="M198.85,90.02c0-30.84-25.09-55.93-55.94-55.93c-30.84,0-55.93,25.09-55.93,55.93
	c0,28.45,21.36,51.99,48.88,55.47v15.81h-18.56v16.97h18.56v28.45h16.97v-28.45h18.56V161.3h-18.56v-16.25
	C178.97,140.35,198.85,117.47,198.85,90.02z M104.27,90.02c0-21.34,17.31-38.64,38.64-38.64c21.34,0,38.64,17.3,38.64,38.64
	s-17.3,38.64-38.64,38.64C121.58,128.66,104.27,111.36,104.27,90.02z"/>
</svg>
