<?xml version="1.0" encoding="utf-8"?>
<!-- Generator: Adobe Illustrator 28.1.0, SVG Export Plug-In . SVG Version: 6.00 Build 0)  -->
<svg version="1.1" id="Layer_1" xmlns="http://www.w3.org/2000/svg" xmlns:xlink="http://www.w3.org/1999/xlink" x="0px" y="0px"
	 viewBox="0 0 280.53 237.06" style="enable-background:new 0 0 280.53 237.06;" xml:space="preserve">
<style type="text/css">
	.st0{fill:#EFBFE2;}
	.st1{fill:#F7BE8B;}
	.st2{fill:#CE4D4D;}
	.st3{fill:#FFFAFF;}
	.st4{fill:#A5A5A5;}
	.st5{fill:#FFFAFF;stroke:#000000;stroke-width:2.5;stroke-miterlimit:10;}
	.st6{fill:#77D895;}
	.st7{fill:#272727;}
	.st8{fill:#BFE090;}
	.st9{fill:#FFFFFF;}
	.st10{fill:#CDE3EE;}
	.st11{fill:#FF8888;}
	.st12{fill:#EFAFBB;}
	.st13{fill:#E88858;}
	.st14{fill:#C5C2F9;}
	.st15{fill:#75B8EF;}
</style>
<g>
	<g>
		<g>
			<g id="XMLID_00000136402967022977979830000017966289502987817373_">
				<path class="st13" d="M70.52,34.36c-31.05,16.13-54.14,46.8-61.07,81.09c-2.86,14.17-3.04,29.13,1.48,42.86
					c5.13,15.55,16.01,28.69,28.69,39.04c33.07,26.97,77.91,35.92,120.52,33.57c33.87-1.87,69.24-11.42,92.44-36.16
					c23.2-24.74,29.02-67.55,5.59-92.07c-9.34-9.77-22.02-15.69-32-24.81c-24.05-21.96-33.15-62.31-64.64-70.63
					c-9.65-2.55-19.88-1.39-29.7,0.41C105.24,12.52,84.14,27.28,70.52,34.36"/>
			</g>
			<g id="XMLID_00000062158955570175010560000004595286227332923556_">
				<path class="st13" d="M250.48,64.21c5.69-2.12,10.32-6.91,12.24-12.66c0.79-2.38,1.14-4.95,0.66-7.41
					c-0.55-2.79-2.15-5.28-4.11-7.33c-5.12-5.35-12.65-7.85-20.04-8.35c-5.87-0.4-12.17,0.49-16.69,4.26
					c-4.52,3.77-6.44,11.02-2.92,15.74c1.4,1.88,3.46,3.17,4.98,4.95c3.67,4.29,4.38,11.44,9.63,13.54
					c1.61,0.64,3.39,0.66,5.12,0.56C244.04,67.23,247.99,65.14,250.48,64.21"/>
			</g>
		</g>
	</g>
	<g>
		<g>
			<path class="st3" d="M140.26,206.94c-0.21,0-0.42-0.05-0.6-0.17l-22.38-13.24c-26.44-15.64-42.87-45.02-42.87-76.7v-34.6
				c0-0.64,0.5-1.16,1.14-1.19l4.13-0.16c9.57-0.37,17.16-8.16,17.28-17.74L97,58.92c0.01-0.65,0.54-1.17,1.19-1.17h84.15
				c0.65,0,1.18,0.52,1.19,1.17l0.05,4.24c0.12,9.58,7.71,17.38,17.28,17.74l4.13,0.16c0.64,0.03,1.14,0.55,1.14,1.19v34.6
				c0,31.67-16.43,61.06-42.87,76.7l-22.39,13.24C140.68,206.89,140.47,206.94,140.26,206.94z M85.37,116.84
				c0,27.81,14.37,53.58,37.49,67.26l17.41,10.29l17.41-10.29c23.12-13.67,37.49-39.45,37.49-67.26V91.17
				c-11.06-2.49-19.72-11.35-21.97-22.46h-65.85c-2.25,11.12-10.91,19.97-21.97,22.46V116.84z"/>
			<path d="M182.34,58.93l0.05,4.24c0.13,10.21,8.22,18.52,18.42,18.91l4.13,0.16v34.6c0,31.25-16.2,60.25-42.29,75.67l-22.39,13.24
				l-22.39-13.24c-26.09-15.42-42.29-44.42-42.29-75.67v-34.6l4.13-0.16c10.2-0.39,18.29-8.7,18.42-18.91l0.05-4.24H182.34
				 M140.26,195.77l18.01-10.65c23.48-13.89,38.07-40.05,38.07-68.28V90.21c-11.4-2.16-20.27-11.24-22.17-22.68h-67.82
				c-1.9,11.44-10.78,20.52-22.17,22.68v26.64c0,28.23,14.59,54.39,38.07,68.28L140.26,195.77 M182.34,56.56H98.19
				c-1.3,0-2.36,1.04-2.37,2.34l-0.05,4.24c-0.11,8.95-7.2,16.23-16.14,16.57l-4.13,0.16c-1.27,0.05-2.28,1.1-2.28,2.37v34.6
				c0,32.09,16.65,61.87,43.45,77.72l22.39,13.24c0.37,0.22,0.79,0.33,1.21,0.33s0.83-0.11,1.21-0.33l22.39-13.24
				c26.8-15.85,43.46-45.63,43.46-77.72v-34.6c0-1.27-1.01-2.32-2.28-2.37l-4.13-0.16c-8.94-0.34-16.03-7.62-16.14-16.57l-0.05-4.24
				C184.69,57.6,183.64,56.56,182.34,56.56L182.34,56.56z M108.29,69.9h63.94c2.56,10.82,10.98,19.42,21.74,22.21v24.74
				c0,27.4-14.14,52.78-36.91,66.24l-16.81,9.94l-16.8-9.94c-22.77-13.46-36.91-38.84-36.91-66.24V92.1
				C97.31,89.32,105.73,80.71,108.29,69.9L108.29,69.9z"/>
		</g>
		<g>
			<path class="st3" d="M135.97,145.63c-0.66,0-1.19-0.53-1.19-1.19v-12.67h-12.67c-0.66,0-1.19-0.53-1.19-1.19V122
				c0-0.66,0.53-1.19,1.19-1.19h12.67v-12.67c0-0.66,0.53-1.19,1.19-1.19h8.59c0.66,0,1.19,0.53,1.19,1.19v12.67h12.67
				c0.66,0,1.19,0.53,1.19,1.19v8.59c0,0.66-0.53,1.19-1.19,1.19h-12.67v12.67c0,0.66-0.53,1.19-1.19,1.19H135.97z"/>
			<path d="M144.56,108.14V122h13.86v8.59h-13.86v13.86h-8.59v-13.86h-13.86V122h13.86v-13.86H144.56 M144.56,105.77h-8.59
				c-1.31,0-2.37,1.06-2.37,2.37v11.49h-11.49c-1.31,0-2.37,1.06-2.37,2.37v8.59c0,1.31,1.06,2.37,2.37,2.37h11.49v11.49
				c0,1.31,1.06,2.37,2.37,2.37h8.59c1.31,0,2.37-1.06,2.37-2.37v-11.49h11.49c1.31,0,2.37-1.06,2.37-2.37V122
				c0-1.31-1.06-2.37-2.37-2.37h-11.49v-11.49C146.93,106.83,145.87,105.77,144.56,105.77L144.56,105.77z"/>
		</g>
		<g>
			<path class="st3" d="M140.26,165.06c-21.37,0-38.76-17.39-38.76-38.76s17.39-38.76,38.76-38.76s38.76,17.39,38.76,38.76
				S161.64,165.06,140.26,165.06z M140.26,98.49c-15.33,0-27.8,12.47-27.8,27.8s12.47,27.8,27.8,27.8s27.8-12.47,27.8-27.8
				S155.59,98.49,140.26,98.49z"/>
			<path d="M140.26,88.72c20.72,0,37.58,16.86,37.58,37.58s-16.86,37.58-37.58,37.58c-20.72,0-37.58-16.86-37.58-37.58
				S119.54,88.72,140.26,88.72 M140.26,155.28c15.98,0,28.99-13,28.99-28.99s-13-28.99-28.99-28.99c-15.98,0-28.99,13-28.99,28.99
				S124.28,155.28,140.26,155.28 M140.26,86.34c-22.03,0-39.95,17.92-39.95,39.95s17.92,39.95,39.95,39.95s39.95-17.92,39.95-39.95
				S162.29,86.34,140.26,86.34L140.26,86.34z M140.26,152.91c-14.67,0-26.61-11.94-26.61-26.61c0-14.67,11.94-26.61,26.61-26.61
				s26.61,11.94,26.61,26.61C166.88,140.97,154.94,152.91,140.26,152.91L140.26,152.91z"/>
		</g>
	</g>
</g>
</svg>
